<?xml version="1.0" encoding="UTF-8" standalone="no"?>
<!-- Uploaded to: SVG Repo, www.svgrepo.com, Generator: SVG Repo Mixer Tools -->

<svg
   fill="#000000"
   version="1.1"
   id="Layer_1"
   width="800"
   height="800"
   viewBox="796 796 200 200"
   enable-background="new 796 796 200 200"
   xml:space="preserve"
   xmlns="http://www.w3.org/2000/svg"
   xmlns:svg="http://www.w3.org/2000/svg"><defs
   id="defs1" />
<path
   d="m 896,796 c -55.14,0 -99.999,44.86 -99.999,100 0,55.141 44.859,100 99.999,100 55.141,0 99.999,-44.859 99.999,-100 0,-55.14 -44.858,-100 -99.999,-100 z m 0.639,31.425 c 20.538,0 37.189,19.66 37.189,43.921 0,24.257 -16.651,43.924 -37.189,43.924 -20.538,0 -37.187,-19.667 -37.187,-43.924 0,-24.261 16.649,-43.921 37.187,-43.921 z M 896,983.86 c -24.692,0 -47.038,-10.239 -63.016,-26.695 -2.266,-2.335 -2.984,-5.775 -1.84,-8.82 5.47,-14.556 15.718,-26.762 28.817,-34.761 2.828,-1.728 6.449,-1.393 8.91,0.828 7.706,6.958 17.316,11.114 27.767,11.114 10.249,0 19.69,-4.001 27.318,-10.719 2.488,-2.191 6.128,-2.479 8.932,-0.711 12.697,8.004 22.618,20.005 27.967,34.253 1.144,3.047 0.425,6.482 -1.842,8.817 C 943.037,973.621 920.691,983.86 896,983.86 Z"
   id="path1" />
</svg>
