<svg width="20" height="19" viewBox="0 0 20 19" fill="none" xmlns="http://www.w3.org/2000/svg">
<path d="M16.3232 17.1217H4.07611C2.93958 17.1217 2.01855 16.3142 2.01855 15.3186V4.57858C2.01855 3.58215 2.93958 2.77466 4.07611 2.77466H16.3232C17.4567 2.78081 18.3737 3.58481 18.3807 4.57858V15.309C18.3797 16.3063 17.4607 17.1155 16.3232 17.1217ZM4.07611 3.89309C3.65015 3.89309 3.3044 4.19624 3.3044 4.56967V15.3088C3.3044 15.6823 3.65018 15.9854 4.07611 15.9854H16.3232C16.7491 15.9854 17.0949 15.6823 17.0949 15.3088V4.57844C17.0949 4.20499 16.7491 3.90186 16.3232 3.90186L4.07611 3.89309Z" fill="#E84A5F"/>
<path d="M6.78402 5.9516C6.42924 5.9516 6.1416 5.69942 6.1416 5.38749V1.76211C6.1416 1.45106 6.42924 1.198 6.78402 1.198C7.13981 1.198 7.42745 1.45106 7.42745 1.76211V5.38749C7.42845 5.53774 7.3603 5.68097 7.24003 5.78728C7.11876 5.89272 6.95539 5.9516 6.78402 5.9516Z" fill="#E84A5F"/>
<path d="M13.6014 5.9516C13.2466 5.9516 12.959 5.69942 12.959 5.38749V1.76211C12.959 1.45106 13.2466 1.198 13.6014 1.198C13.9572 1.198 14.2448 1.45106 14.2448 1.76211V5.38749C14.2448 5.53686 14.1767 5.68097 14.0564 5.7864C13.9361 5.89183 13.7718 5.9516 13.6014 5.9516Z" fill="#E84A5F"/>
<path d="M17.7378 8.30312H2.65023C2.29545 8.30312 2.00781 8.05094 2.00781 7.73989C2.00781 7.42796 2.29545 7.17578 2.65023 7.17578H17.7378C18.0925 7.17578 18.3802 7.42796 18.3802 7.73989C18.3802 8.05094 18.0925 8.30312 17.7378 8.30312Z" fill="#E84A5F"/>
</svg>
