<svg width="20" height="19" viewBox="0 0 20 19" fill="none" xmlns="http://www.w3.org/2000/svg">
<path d="M10.0059 3.61621C10.8983 3.61637 11.6591 4.36808 11.6592 5.34277C11.6592 6.31755 10.8983 7.06917 10.0059 7.06934C9.11329 7.06934 8.35156 6.31765 8.35156 5.34277C8.35165 4.36798 9.11334 3.61621 10.0059 3.61621Z" stroke="#E84A5F" stroke-width="1.5"/>
<path d="M15.4893 6.68628C16.3816 6.68644 17.1425 7.43815 17.1426 8.41284C17.1426 9.38762 16.3817 10.1392 15.4893 10.1394C14.5967 10.1394 13.835 9.38772 13.835 8.41284C13.8351 7.43805 14.5967 6.68628 15.4893 6.68628Z" stroke="#E84A5F" stroke-width="1.5"/>
<path d="M4.90527 6.56567C5.79766 6.56584 6.5585 7.31755 6.55859 8.29224C6.55859 9.26701 5.79772 10.0186 4.90527 10.0188C4.0127 10.0188 3.25098 9.26711 3.25098 8.29224C3.25107 7.31744 4.01276 6.56567 4.90527 6.56567Z" stroke="#E84A5F" stroke-width="1.5"/>
<path d="M6.73128 15.8632C6.73128 13.9154 5.46862 12.3364 3.91105 12.3364C2.35348 12.3364 1.09082 13.9154 1.09082 15.8632" stroke="#E84A5F" stroke-width="1.5"/>
<path d="M18.7293 15.8873C18.7293 13.9396 17.4667 12.3606 15.9091 12.3606C14.3515 12.3606 13.0889 13.9396 13.0889 15.8873" stroke="#E84A5F" stroke-width="1.5"/>
<path d="M12.826 12.777C12.826 10.8292 11.5633 9.25024 10.0058 9.25024C8.44821 9.25024 7.18555 10.8292 7.18555 12.777" stroke="#E84A5F" stroke-width="1.5"/>
</svg>
