<?xml version="1.0" encoding="UTF-8"?>
<svg id="Layer_1" data-name="Layer 1" xmlns="http://www.w3.org/2000/svg" viewBox="0 0 145.76 110.09">
  <defs>
    <style>
      .cls-1 {
        fill: #fff;
      }
    </style>
  </defs>
  <path class="cls-1" d="M123.4,103.23H22.36c-8.45,0-15.33-6.88-15.33-15.33V22.2h3.72v65.7c0,6.4,5.21,11.61,11.61,11.61h101.04v3.72Z"/>
  <path class="cls-1" d="M138.73,87.89h-3.72V22.2c0-6.4-5.21-11.61-11.61-11.61H22.36v-3.72h101.04c8.45,0,15.33,6.88,15.33,15.33v65.7Z"/>
  <path class="cls-1" d="M22.46,100.6c-.18,0-.37-.06-.52-.18-.36-.29-.42-.81-.14-1.18,2.84-3.59,8.62-4.8,12.44-5.61l.07-.02c8.28-1.75,15.3-6.36,22.08-10.82.86-.57,1.72-1.13,2.58-1.69,5.25-3.41,15.63-11.19,15.82-13.74,0-.12-.02-.14-.05-.17-.97-.86-5.27,2.31-6.68,3.35-.63.47-1.14.83-1.49,1.04-.09.05-.32.2-.65.42-9.68,6.38-10.98,6.12-11.68,5.13-1.56-2.25,3.22-6.28,13.74-14.32,3.12-2.38,6.93-5.3,7.88-6.44-.32-.18-.57-.02-1.15.39-.21.15-.42.3-.63.42-1.92,1.09-3.82,2.3-5.66,3.48-1.02.65-2.04,1.3-3.07,1.94-.4.24-.93.59-1.57,1-4.45,2.87-8.99,5.68-11.33,5.91-.21.02-.78.08-1.21-.33-.39-.37-.6-1.08,0-1.96,1.96-2.82,7.27-6.62,11.14-9.4.98-.7,1.86-1.33,2.54-1.84l.49-.37c1.5-1.13,3.05-2.29,4.48-3.53.22-.19.53-.43.9-.7.57-.44,1.72-1.31,2.32-1.99-1.35.1-4.84,1.47-13.19,6.3-1.23.71-2.11,1.22-2.58,1.44-.3.14-1.02.55-1.86,1.03-5,2.83-7.75,4.22-8.95,3.98-.29-.06-.53-.27-.62-.55-.1-.28-.04-.59.16-.81,2.92-3.42,9.73-7.84,14.71-11.07.99-.64,1.89-1.23,2.64-1.72.23-.15.58-.36.99-.61,2.73-1.63,4.14-2.74,4.2-3.28.03-.29-.02-.39-.02-.39-.24-.1-1.29.24-1.68.37-.2.07-.39.13-.55.17-1.15.32-2.24.8-3.39,1.3-.78.34-1.58.69-2.4.99-3.88,1.4-7.58,3.24-10.37,4.69-1.64.85-3.26,1.72-4.88,2.59-1.86,1-3.79,2.04-5.71,3.02-1.56.8-3.39,1.72-5.26,2.53-.96.42-1.81.74-2.63,1.06-.75.29-1.52.59-2.37.95-.28.12-.61.08-.85-.11-.24-.19-.36-.5-.3-.8.48-2.7,1.87-4.75,3.22-6.73,1.11-1.62,2.16-3.16,2.64-4.97l.3-2.41c-.16-.01-.23.03-.32.11-1.24,1.18-2.53,2.34-3.78,3.47-2.76,2.49-5.61,5.06-8.06,7.88-2.88,3.3-4.34,7.72-4.47,13.51-.12,5.18-3.01,11.05-7.19,14.61-.35.3-.88.26-1.18-.1-.3-.35-.26-.88.09-1.18,3.84-3.27,6.5-8.64,6.6-13.37.14-6.11,1.78-11.01,4.88-14.57,2.52-2.89,5.41-5.5,8.2-8.02,1.24-1.12,2.52-2.28,3.75-3.44.92-.87,1.94-.55,2.61-.33.38.12.66.51.61.91l-.4,3.2s-.01.07-.02.11c-.55,2.12-1.74,3.86-2.89,5.55-1,1.47-1.97,2.88-2.55,4.52.29-.11.58-.22.86-.33.84-.32,1.64-.63,2.57-1.03,1.83-.8,3.63-1.7,5.17-2.49,1.9-.97,3.82-2,5.67-3,1.63-.88,3.26-1.75,4.9-2.6,2.84-1.47,6.6-3.34,10.57-4.77.77-.28,1.55-.62,2.3-.95,1.15-.51,2.35-1.03,3.62-1.38.13-.04.29-.09.47-.15,1-.33,2.38-.79,3.28-.06.34.27.72.81.61,1.84-.16,1.53-2.46,3.02-5,4.55-.38.23-.7.42-.92.56-.75.5-1.66,1.09-2.65,1.74-3.42,2.22-8.13,5.27-11.46,8.02,1.65-.85,3.46-1.87,4.43-2.43.94-.53,1.61-.91,1.97-1.08.41-.19,1.31-.72,2.46-1.38,8.92-5.16,14.08-7.63,15.83-5.93.2.19.29.48.24.75-.22,1.18-1.64,2.35-3.35,3.65-.33.25-.62.47-.82.64-1.48,1.27-3.05,2.45-4.57,3.6l-.49.37c-.69.52-1.57,1.15-2.57,1.87-3.35,2.4-8.31,5.96-10.38,8.52,2.49-.74,7.4-3.91,9.89-5.51.65-.42,1.19-.77,1.6-1.02,1.02-.63,2.04-1.28,3.05-1.93,1.86-1.19,3.78-2.41,5.74-3.52.16-.09.31-.2.47-.32.73-.53,2.1-1.51,3.68.09.21.21.32.5.29.81-.08,1.1-1.82,2.57-8.71,7.84-4.53,3.46-12.78,9.76-13.34,11.79.81-.2,3.07-1.19,9.34-5.33.36-.24.61-.4.71-.46.28-.17.78-.54,1.36-.96,3.58-2.63,6.94-4.86,8.78-3.26.45.39.66.93.61,1.55-.32,4.43-16.41,14.92-16.57,15.03-.86.56-1.72,1.12-2.58,1.69-6.92,4.54-14.07,9.24-22.66,11.05l-.07.02c-3.58.76-9,1.9-11.47,5.01-.17.21-.41.32-.66.32Z"/>
  <path class="cls-1" d="M98.07,82.16c-.23,0-.44-.07-.62-.21-1.77-1.37-.97-2.88-.53-3.7.1-.18.19-.36.26-.54.87-2.16,1.87-4.3,2.83-6.37.53-1.13,1.05-2.26,1.56-3.4.2-.45.49-1.06.83-1.78,1.3-2.77,3.88-8.26,4.33-10.92-2.32,2.5-5.28,8.09-7.28,11.86-.59,1.12-1.12,2.12-1.56,2.89l-.32.58c-.96,1.71-1.95,3.48-3.03,5.17-.15.23-.33.56-.54.93-1.09,1.92-2.08,3.55-3.23,3.94-.27.09-.57.04-.79-.14-1.9-1.52-.05-7.14,4.03-16.99.53-1.27.94-2.27,1.09-2.72.13-.39.43-1.13.85-2.16.43-1.07,1.24-3.06,1.89-4.87-2.35,3.81-4.84,9.06-6.65,12.87-.53,1.11-1.01,2.12-1.42,2.97-.12.24-.27.6-.45,1.02-1.26,2.92-2.43,5.37-3.92,5.75-1.01.26-1.59-.04-1.91-.34-.85-.8-.56-2.27-.35-3.35.04-.19.07-.36.09-.5.2-1.34.58-2.63.95-3.88.24-.82.49-1.66.68-2.49.96-4.25,2.38-8.37,3.51-11.48.65-1.8,1.33-3.58,2.01-5.37.78-2.04,1.58-4.16,2.33-6.25.77-2.16,1.36-3.95,1.87-5.65l.11-.35c.2-.63.53-1.68.93-3.4-1.6.84-2.92,2.05-4.29,3.31-1.55,1.42-3.14,2.89-5.19,3.77-.03.01-.07.03-.1.04l-3.14.89c-.4.11-.82-.08-.99-.46-.31-.68-.75-1.66,0-2.7,1.02-1.43,2.02-2.91,3-4.34,2.19-3.22,4.44-6.55,7.03-9.54,3.18-3.68,7.88-6.09,13.96-7.14,4.72-.82,9.78-4.33,12.59-8.75.25-.39.76-.51,1.15-.26.39.25.5.77.26,1.15-3.05,4.79-8.56,8.6-13.72,9.5-5.77,1-10.02,3.15-12.98,6.58-2.52,2.92-4.75,6.21-6.91,9.39-.98,1.44-1.99,2.93-3.02,4.38-.08.12-.12.21-.09.37l2.36-.66c1.76-.76,3.17-2.06,4.66-3.44,1.81-1.67,3.69-3.39,6.33-4.28.28-.1.6-.03.82.17.22.2.32.5.26.8-.58,2.76-1.08,4.36-1.32,5.13l-.1.33c-.52,1.73-1.12,3.55-1.9,5.73-.75,2.11-1.56,4.23-2.34,6.28-.68,1.78-1.35,3.56-2,5.35-1.11,3.06-2.51,7.12-3.45,11.28-.2.88-.46,1.75-.7,2.6-.37,1.25-.72,2.43-.9,3.65-.02.16-.06.36-.11.58-.08.42-.3,1.51-.14,1.8.02-.01.12,0,.34-.06.82-.21,2.31-3.66,2.8-4.8.2-.45.36-.84.49-1.09.41-.84.88-1.84,1.41-2.95,2.63-5.55,6.24-13.15,9.3-16.63.2-.23.5-.33.79-.27.29.06.53.27.63.56.39,1.17-.67,4.18-2.9,9.69-.38.93-.7,1.73-.81,2.06-.17.5-.57,1.48-1.13,2.84-3.81,9.18-4.77,12.96-4.72,14.39.61-.73,1.34-2.01,1.71-2.66.23-.41.43-.76.59-1.01,1.06-1.64,2.04-3.39,2.98-5.08l.32-.58c.43-.77.95-1.75,1.54-2.86,2.31-4.36,5.48-10.34,8.06-12.75.79-.74,1.53-.64,1.96-.29.46.38.47.94.48,1.18.05,2.4-2.22,7.44-4.55,12.41-.33.71-.62,1.31-.81,1.75-.51,1.15-1.04,2.29-1.57,3.43-.95,2.05-1.94,4.17-2.8,6.29-.09.23-.21.46-.34.69-.35.66-.48.95-.27,1.26,1.03-1.14,3.49-5.46,5.5-9.01,6.77-11.91,10.23-17.39,12.66-16.12,1.08.56,1.49,1.84-3.72,12.64-.18.38-.31.64-.35.73-.17.38-.47.95-.86,1.66-2.34,4.3-3.2,6.77-2.55,7.35.03.02.04.04.14.02,1.22-.25,6.1-6.01,11.88-18.2.46-.96.92-1.93,1.38-2.89,3.65-7.59,7.42-15.43,8.18-24.15v-.07c.36-4.01.88-10.06,4.11-13.48.32-.34.85-.35,1.18-.03.34.32.35.85.03,1.18-2.83,3-3.33,8.71-3.66,12.48v.07c-.79,9.02-4.63,17.01-8.34,24.73-.46.96-.92,1.92-1.38,2.88-.09.18-8.69,18.24-13.06,19.13-.6.12-1.15-.02-1.59-.41-1.82-1.62,0-5.37,2.2-9.4.35-.65.66-1.21.8-1.53.05-.11.18-.38.38-.79,3.42-7.09,4.13-9.53,4.22-10.37-1.91.83-7.26,10.24-10.2,15.41-4.44,7.81-5.7,9.81-6.79,10.03-.07.01-.15.02-.22.02Z"/>
  <g>
    <path class="cls-1" d="M102.83,19.38h-4.07c-.46,0-.84-.37-.84-.84s.37-.84.84-.84h4.07c.46,0,.84.37.84.84s-.37.84-.84.84Z"/>
    <path class="cls-1" d="M90.9,19.38h-7.85c-.46,0-.84-.37-.84-.84s.37-.84.84-.84h7.85c.46,0,.84.37.84.84s-.37.84-.84.84ZM75.2,19.38h-7.85c-.46,0-.84-.37-.84-.84s.37-.84.84-.84h7.85c.46,0,.84.37.84.84s-.37.84-.84.84ZM59.5,19.38h-7.85c-.46,0-.84-.37-.84-.84s.37-.84.84-.84h7.85c.46,0,.84.37.84.84s-.37.84-.84.84ZM43.79,19.38h-7.85c-.46,0-.84-.37-.84-.84s.37-.84.84-.84h7.85c.46,0,.84.37.84.84s-.37.84-.84.84Z"/>
    <path class="cls-1" d="M24.01,23.46c-.46,0-.84-.37-.84-.84v-4.07c0-.46.37-.84.84-.84h4.07c.46,0,.84.37.84.84s-.37.84-.84.84h-3.24v3.24c0,.46-.37.84-.84.84Z"/>
    <path class="cls-1" d="M24.01,41.9c-.46,0-.84-.37-.84-.84v-9.22c0-.46.37-.84.84-.84s.84.37.84.84v9.22c0,.46-.37.84-.84.84Z"/>
    <path class="cls-1" d="M24.01,55.2c-.46,0-.84-.37-.84-.84v-4.07c0-.46.37-.84.84-.84s.84.37.84.84v4.07c0,.46-.37.84-.84.84Z"/>
  </g>
  <g>
    <path class="cls-1" d="M42.62,94.4h-4.07c-.46,0-.84-.37-.84-.84s.37-.84.84-.84h4.07c.46,0,.84.37.84.84s-.37.84-.84.84Z"/>
    <path class="cls-1" d="M110.24,94.4h-8.45c-.46,0-.84-.37-.84-.84s.37-.84.84-.84h8.45c.46,0,.84.37.84.84s-.37.84-.84.84ZM93.34,94.4h-8.45c-.46,0-.84-.37-.84-.84s.37-.84.84-.84h8.45c.46,0,.84.37.84.84s-.37.84-.84.84ZM76.43,94.4h-8.45c-.46,0-.84-.37-.84-.84s.37-.84.84-.84h8.45c.46,0,.84.37.84.84s-.37.84-.84.84ZM59.53,94.4h-8.45c-.46,0-.84-.37-.84-.84s.37-.84.84-.84h8.45c.46,0,.84.37.84.84s-.37.84-.84.84Z"/>
    <path class="cls-1" d="M122.77,94.4h-4.07c-.46,0-.84-.37-.84-.84s.37-.84.84-.84h3.24v-3.24c0-.46.37-.84.84-.84s.84.37.84.84v4.07c0,.46-.37.84-.84.84Z"/>
    <path class="cls-1" d="M122.77,81.1c-.46,0-.84-.37-.84-.84v-9.22c0-.46.37-.84.84-.84s.84.37.84.84v9.22c0,.46-.37.84-.84.84Z"/>
    <path class="cls-1" d="M122.77,62.66c-.46,0-.84-.37-.84-.84v-4.07c0-.46.37-.84.84-.84s.84.37.84.84v4.07c0,.46-.37.84-.84.84Z"/>
  </g>
  <path class="cls-1" d="M76.26,94.37c-.07,0-.13,0-.2-.03-.42-.11-.68-.54-.57-.96,12.23-47.53-4.81-63.7-10.4-69.01l-.08-.07c-.32-.3-.33-.8-.03-1.12.3-.32.8-.33,1.12-.03l.08.07c2.79,2.65,8.6,8.16,12.18,19.16,4.41,13.53,3.96,30.82-1.34,51.39-.09.36-.41.59-.77.59Z"/>
  <path class="cls-1" d="M76.26,40.19c-.07,0-.14,0-.22-.03l-15.99-4.53c-.42-.12-.66-.56-.55-.98s.56-.66.98-.55l15.99,4.53c.42.12.66.56.55.98-.1.35-.42.58-.76.58Z"/>
  <path class="cls-1" d="M76.73,40.43c-.09,0-.19-.02-.28-.05-.41-.16-.61-.61-.45-1.02l3.58-9.31c.16-.41.62-.61,1.02-.45.41.16.61.61.45,1.02l-3.58,9.31c-.12.31-.42.51-.74.51Z"/>
  <path class="cls-1" d="M63.44,25.17c-1.24,0-2.42-.46-3.33-1.31-.96-.89-1.51-2.1-1.56-3.41-.05-1.31.42-2.56,1.31-3.52.89-.96,2.1-1.51,3.41-1.56,2.69-.07,4.98,2.02,5.08,4.72h0c.1,2.7-2.02,4.98-4.72,5.08-.06,0-.12,0-.19,0ZM63.44,16.95s-.08,0-.12,0c-.89.03-1.71.41-2.31,1.06-.6.65-.92,1.5-.89,2.38.03.89.41,1.71,1.06,2.31.65.6,1.49.92,2.38.88,1.83-.07,3.26-1.61,3.2-3.44h0c-.07-1.79-1.54-3.2-3.32-3.2Z"/>
  <path class="cls-1" d="M81.74,31.46c-1.24,0-2.42-.46-3.33-1.31-.96-.89-1.51-2.1-1.56-3.41-.05-1.31.42-2.56,1.31-3.52.89-.96,2.1-1.51,3.41-1.56,2.69-.08,4.98,2.02,5.08,4.72h0c.1,2.7-2.02,4.98-4.72,5.08-.06,0-.12,0-.19,0ZM81.75,23.23s-.08,0-.12,0c-.89.03-1.71.41-2.31,1.06-.6.65-.92,1.5-.89,2.38.03.89.41,1.71,1.06,2.31.65.6,1.5.92,2.38.88,1.83-.07,3.26-1.61,3.2-3.44h0c-.07-1.79-1.54-3.2-3.32-3.2Z"/>
  <path class="cls-1" d="M56.06,39.24c-2.62,0-4.8-2.08-4.9-4.72-.05-1.31.42-2.56,1.31-3.52.89-.96,2.1-1.51,3.41-1.56,2.68-.08,4.98,2.02,5.08,4.72h0c.1,2.7-2.02,4.98-4.72,5.08-.06,0-.12,0-.18,0ZM56.06,31.02s-.08,0-.12,0c-.89.03-1.71.41-2.31,1.06-.6.65-.92,1.5-.89,2.38.07,1.83,1.6,3.26,3.44,3.19,1.83-.07,3.26-1.61,3.19-3.44h0c-.07-1.79-1.54-3.2-3.32-3.2Z"/>
  <path class="cls-1" d="M73.98,89.85h-5.86c-.52,0-.95-.42-.95-.95s.42-.95.95-.95h5.86c.52,0,.95.42.95.95s-.42.95-.95.95Z"/>
  <path class="cls-1" d="M73.98,85.17h-5.86c-.52,0-.95-.42-.95-.95s.42-.95.95-.95h5.86c.52,0,.95.42.95.95s-.42.95-.95.95Z"/>
  <path class="cls-1" d="M73.98,80.5h-5.86c-.52,0-.95-.42-.95-.95s.42-.95.95-.95h5.86c.52,0,.95.42.95.95s-.42.95-.95.95Z"/>
</svg>