<svg width="204" height="149" viewBox="0 0 204 149" fill="none" xmlns="http://www.w3.org/2000/svg">
<path d="M138.321 62.4377C139.147 63.3975 140.597 63.503 141.55 62.6803L146.938 58.0813V62.9123L138.565 70.0639C137.601 70.8867 137.496 72.3317 138.321 73.2916C139.147 74.2515 140.597 74.357 141.55 73.5448L146.938 68.9458V73.7768L138.565 80.9284C137.601 81.7512 137.496 83.1963 138.321 84.1561C139.147 85.116 140.597 85.2215 141.55 84.4093L146.938 79.8103V84.6413L138.565 91.7929C137.601 92.6157 137.496 94.0608 138.321 95.0101C139.147 95.97 140.597 96.086 141.55 95.2633L146.938 90.6643V112.836H140.343C139.475 112.836 138.776 113.533 138.776 114.397C138.776 115.262 139.475 115.959 140.343 115.959H154.528C156.613 124.038 163.96 130.03 172.714 130.03C183.077 130.03 191.503 121.633 191.503 111.307C191.503 108.005 190.635 104.904 189.122 102.204L192.001 98.8285C192.562 98.1745 192.477 97.183 191.821 96.624C191.165 96.0649 190.17 96.1493 189.608 96.8033L187.29 99.5141C187.1 99.2821 186.899 99.0711 186.697 98.8496C186.697 98.8074 186.697 98.7758 186.697 98.7336V83.8608C186.697 82.9959 185.999 82.2997 185.131 82.2997C184.263 82.2997 183.564 82.9959 183.564 83.8608V96.0544C180.494 93.8709 176.747 92.584 172.703 92.584C162.34 92.584 153.914 100.98 153.914 111.307C153.914 111.824 153.956 112.33 153.988 112.836H149.235V90.6643L154.623 95.2633C155.057 95.6324 155.586 95.8118 156.116 95.8118C156.761 95.8118 157.407 95.5375 157.862 95.0101C158.688 94.0502 158.572 92.6051 157.619 91.7929L149.246 84.6413V79.8103L154.634 84.4093C155.068 84.7785 155.597 84.9578 156.126 84.9578C156.772 84.9578 157.418 84.6835 157.873 84.1561C158.699 83.1963 158.582 81.7512 157.629 80.9284L149.256 73.7768V68.9458L154.644 73.5448C155.078 73.914 155.608 74.0933 156.137 74.0933C156.783 74.0933 157.428 73.819 157.883 73.2916C158.709 72.3317 158.593 70.8867 157.64 70.0639L149.267 62.9123V58.0813L154.655 62.6803C155.089 63.0494 155.618 63.2288 156.147 63.2288C156.793 63.2288 157.439 62.9545 157.894 62.4271C158.72 61.4672 158.603 60.0221 157.651 59.1994L148.134 51.0668L138.618 59.1994C137.654 60.0221 137.549 61.4672 138.374 62.4271M172.714 95.6957C177.827 95.6957 182.357 98.164 185.215 101.951L171.348 118.205L162.869 109.756C162.255 109.145 161.26 109.145 160.646 109.756C160.032 110.368 160.032 111.36 160.646 111.971L171.539 122.825L186.92 104.788C187.841 106.771 188.37 108.976 188.37 111.296C188.37 119.893 181.352 126.897 172.714 126.897C164.076 126.897 157.058 119.904 157.058 111.296C157.058 102.689 164.076 95.6957 172.714 95.6957Z" fill="white"/>
<path d="M108.724 91.3393C107.761 92.1621 107.655 93.6072 108.47 94.5671C109.296 95.5269 110.746 95.6324 111.709 94.8097L117.097 90.2107V112.826H110.481C109.613 112.826 108.914 113.522 108.914 114.387C108.914 115.252 109.613 115.948 110.481 115.948H125.417C126.285 115.948 126.984 115.252 126.984 114.387C126.984 113.522 126.285 112.826 125.417 112.826H119.394V90.2107L124.782 94.8097C125.216 95.1788 125.746 95.3582 126.275 95.3582C126.921 95.3582 127.566 95.0839 128.022 94.5565C128.847 93.5966 128.731 92.1515 127.767 91.3288L119.394 84.1772V79.3462L124.782 83.9451C125.216 84.3143 125.746 84.4937 126.275 84.4937C126.921 84.4937 127.566 84.2194 128.022 83.692C128.847 82.7321 128.731 81.287 127.767 80.4643L118.251 72.3317L108.735 80.4643C107.771 81.287 107.665 82.7321 108.48 83.692C109.306 84.6519 110.756 84.7573 111.72 83.9451L117.108 79.3462V84.1772L108.735 91.3288L108.724 91.3393Z" fill="white"/>
<path d="M97.9267 113.585C98.7947 113.585 99.4933 112.889 99.4933 112.024V97.1408C99.4933 96.2759 98.7947 95.5797 97.9267 95.5797C97.0586 95.5797 96.36 96.2759 96.36 97.1408V112.024C96.36 112.889 97.0586 113.585 97.9267 113.585Z" fill="white"/>
<path d="M97.9267 83.8292C98.7947 83.8292 99.4933 83.133 99.4933 82.2681V67.3847C99.4933 66.5198 98.7947 65.8236 97.9267 65.8236C97.0586 65.8236 96.36 66.5198 96.36 67.3847V82.2681C96.36 83.133 97.0586 83.8292 97.9267 83.8292Z" fill="white"/>
<path d="M185.141 70.528C186.009 70.528 186.708 69.8318 186.708 68.9669V54.0836C186.708 53.2186 186.009 52.5225 185.141 52.5225C184.273 52.5225 183.575 53.2186 183.575 54.0836V68.9669C183.575 69.8318 184.273 70.528 185.141 70.528Z" fill="white"/>
<path d="M185.141 40.7719C186.009 40.7719 186.708 40.0757 186.708 39.2108V24.3275C186.708 23.4625 186.009 22.7664 185.141 22.7664C184.273 22.7664 183.575 23.4625 183.575 24.3275V39.2108C183.575 40.0757 184.273 40.7719 185.141 40.7719Z" fill="white"/>
<path d="M157.259 23.9161H172.195C173.063 23.9161 173.762 23.2199 173.762 22.355C173.762 21.4901 173.053 20.7939 172.195 20.7939H157.259C156.391 20.7939 155.692 21.4901 155.692 22.355C155.692 23.2199 156.391 23.9161 157.259 23.9161Z" fill="white"/>
<path d="M127.397 23.9161H142.323C143.191 23.9161 143.889 23.2199 143.889 22.355C143.889 21.4901 143.191 20.7939 142.323 20.7939H127.397C126.529 20.7939 125.83 21.4901 125.83 22.355C125.83 23.2199 126.529 23.9161 127.397 23.9161Z" fill="white"/>
<path d="M97.9267 23.9161H112.852C113.72 23.9161 114.419 23.2199 114.419 22.355C114.419 21.4901 113.72 20.7939 112.852 20.7939H97.9267C97.0586 20.7939 96.36 21.4901 96.36 22.355C96.36 23.2199 97.0586 23.9161 97.9267 23.9161Z" fill="white"/>
<path d="M145.287 123.49H98.2442C97.3761 123.49 96.6775 124.186 96.6775 125.051C96.6775 125.916 97.3761 126.612 98.2442 126.612H145.287C146.155 126.612 146.853 125.916 146.853 125.051C146.853 124.186 146.155 123.49 145.287 123.49Z" fill="white"/>
<path d="M145.287 131.791H98.2442C97.3761 131.791 96.6775 132.487 96.6775 133.352C96.6775 134.217 97.3761 134.913 98.2442 134.913H145.287C146.155 134.913 146.853 134.217 146.853 133.352C146.853 132.487 146.155 131.791 145.287 131.791Z" fill="white"/>
<path d="M23.8169 0.668152C10.786 0.668152 0.189819 11.2373 0.189819 24.2114V125.114C0.189819 138.099 10.786 148.658 23.8169 148.658H179.563C192.594 148.658 203.19 138.099 203.19 125.114V0.668152H23.8169ZM5.92721 125.125V54.3684H42.818V82.9537H19.5085L32.0419 70.1799L29.0567 67.1316L10.8389 85.7067L30.0306 102.594L32.8464 99.2821L19.8367 87.8374H42.818V142.941H23.8169C13.9511 142.941 5.91663 134.945 5.91663 125.104M58.4741 142.951H47.7403V87.848H49.4975C54.441 87.848 58.4741 91.8562 58.4741 96.7927V142.951ZM197.463 125.125C197.463 134.956 189.439 142.962 179.563 142.962H78.1104V67.5218L90.2944 80.2534L93.4489 77.3843L75.4534 58.5876L57.8496 77.11L61.0676 80.0318L73.1881 67.2687V142.951H63.3858V96.7927C63.3858 89.1559 57.1509 82.9431 49.4975 82.9431H47.7403V54.3578H123.311L110.322 66.5936L113.191 69.758L132.129 51.9107L113.614 34.2849L110.672 37.4809L123.258 49.4635H99.5039V37.6286C99.5039 36.7637 98.8052 36.0675 97.9372 36.0675C97.0692 36.0675 96.3706 36.7637 96.3706 37.6286V49.4635H47.7509V26.5004L59.9349 39.2319L63.0894 36.3628L45.0939 17.5662L27.4901 36.0886L30.7081 39.0104L42.8286 26.2472V49.4635H5.92721V24.2114C5.92721 14.3806 13.9511 6.37466 23.8275 6.37466H197.463V125.114V125.125Z" fill="white"/>
</svg>
