<svg width="31" height="31" viewBox="0 0 31 31" fill="none" xmlns="http://www.w3.org/2000/svg">
<circle cx="15.5" cy="15.5" r="15" fill="#2A363B" stroke="white"/>
<circle cx="15" cy="8" r="2.5" fill="#2A363B" stroke="white"/>
<path d="M15.1244 12.475L8.94992 12.0001C8.63328 12.0001 8 12.1901 8 12.95C8 13.48 8.30806 13.7328 8.60189 13.8372C8.82482 13.9165 9.06747 13.9167 9.30169 13.9502L11.9229 14.3246C12.1571 14.3581 12.4001 14.3572 12.6228 14.437C13.0637 14.5948 13.5217 15.0863 13.2246 16.2747C12.8446 17.7946 11.7997 20.7077 11.3247 21.9743C11.1664 22.2909 11.0398 23.0192 11.7997 23.3991C12.5596 23.7791 13.0663 22.9242 13.2246 22.4492L14.6495 18.1746" stroke="white"/>
<path d="M14.6493 12.475L20.8238 12C21.1405 12 21.7737 12.19 21.7737 12.9499C21.7737 13.4799 21.4657 13.7327 21.1719 13.8372C20.9489 13.9164 20.7063 13.9166 20.4721 13.9501L17.8509 14.3246C17.6166 14.358 17.3737 14.3572 17.1509 14.4369C16.71 14.5947 16.2521 15.0862 16.5492 16.2746C16.9291 17.7945 17.9741 20.7076 18.449 21.9742C18.6073 22.2908 18.734 23.0191 17.9741 23.3991C17.2141 23.779 16.7075 22.9241 16.5492 22.4491L15.1243 18.1745" stroke="white"/>
</svg>
