<svg width="32" height="23" viewBox="0 0 32 23" fill="none" xmlns="http://www.w3.org/2000/svg">
<g clip-path="url(#clip0_2721_960)">
<path d="M28.2486 22.9446V22.0953C29.7358 22.0953 30.9464 20.9058 30.9464 19.4446V4.4446C30.9464 2.98341 29.7358 1.79391 28.2486 1.79391V0.944595C30.2121 0.944595 31.8108 2.51537 31.8108 4.4446V19.4446C31.8108 21.3738 30.2121 22.9446 28.2486 22.9446Z" fill="#272727"/>
<path d="M4.45411 22.9446C2.4906 22.9446 0.891907 21.3738 0.891907 19.4446V4.4446C0.891907 2.51537 2.4906 0.944595 4.45411 0.944595V1.79391C2.96696 1.79391 1.75632 2.98341 1.75632 4.4446V19.4446C1.75632 20.9058 2.96696 22.0953 4.45411 22.0953V22.9446Z" fill="#272727"/>
<path d="M4.87474 10.6227H4.52851V18.1957H4.87474V10.6227Z" fill="#272727"/>
<path d="M4.70279 13.8008L3.26675 12.593C3.12268 12.472 3.10409 12.2574 3.22957 12.1135C3.35273 11.972 3.57115 11.9537 3.71755 12.077L4.70279 12.9058L5.68803 12.077C5.8321 11.956 6.05052 11.972 6.176 12.1135C6.30148 12.2551 6.28289 12.4697 6.13882 12.593L4.70279 13.8008Z" fill="#272727"/>
<path d="M4.70279 15.4149L3.26675 14.2072C3.12268 14.0861 3.10409 13.8715 3.22957 13.7277C3.35273 13.5861 3.57115 13.5679 3.71755 13.6912L4.70279 14.5199L5.68803 13.6912C5.8321 13.5702 6.05052 13.5861 6.176 13.7277C6.30148 13.8693 6.28289 14.0839 6.13882 14.2072L4.70279 15.4149Z" fill="#272727"/>
<path d="M28.1743 10.6227H27.8281V18.1957H28.1743V10.6227Z" fill="#272727"/>
<path d="M28.0024 13.8008L26.5663 12.593C26.4223 12.4697 26.4037 12.2574 26.5291 12.1135C26.6523 11.972 26.8707 11.9537 27.0171 12.077L28.0024 12.9058L28.9876 12.077C29.1317 11.956 29.3501 11.972 29.4756 12.1135C29.6011 12.2551 29.5825 12.4697 29.4384 12.593L28.0024 13.8008Z" fill="#272727"/>
<path d="M28.0024 15.4149L26.5663 14.2072C26.4223 14.0839 26.4037 13.8715 26.5291 13.7277C26.6523 13.5861 26.8707 13.5679 27.0171 13.6912L28.0024 14.5199L28.9876 13.6912C29.1317 13.5702 29.3501 13.5861 29.4756 13.7277C29.6011 13.8693 29.5825 14.0839 29.4384 14.2072L28.0024 15.4149Z" fill="#272727"/>
<path d="M29.2943 18.3464H21.9166L16.3514 10.6432L10.7862 18.3464H3.4085V18.0085H10.6073L16.3514 10.0565L22.0956 18.0085H29.2943V18.3464Z" fill="#272727"/>
<path d="M21.7911 16.2094C21.7447 16.2094 21.6959 16.2003 21.6517 16.1798C21.4774 16.1044 21.3984 15.9035 21.4751 15.7323C21.7911 15.0291 21.9515 14.2825 21.9515 13.5108C21.9515 10.4766 19.4396 8.00852 16.3514 8.00852C13.2632 8.00852 10.7513 10.4766 10.7513 13.5108C10.7513 14.2825 10.9117 15.0291 11.2277 15.7323C11.3044 15.9035 11.2277 16.1044 11.0511 16.1798C10.8768 16.2551 10.6723 16.1798 10.5956 16.0062C10.2401 15.2163 10.0589 14.3761 10.0589 13.5108C10.0589 10.1021 12.8821 7.32816 16.3514 7.32816C19.8207 7.32816 22.6439 10.1021 22.6439 13.5108C22.6439 14.3761 22.4627 15.2163 22.1072 16.0062C22.0491 16.1341 21.9236 16.2094 21.7911 16.2094Z" fill="#272727"/>
<path d="M16.9509 13.6113H15.7519V18.23H16.9509V13.6113Z" fill="#272727"/>
<path d="M16.9509 19.1364H15.7519V20.2231H16.9509V19.1364Z" fill="#272727"/>
<path d="M13.814 6.93318C13.6931 6.93318 13.5746 6.86925 13.5119 6.75738L11.8714 3.83044C11.7784 3.66606 11.8412 3.46058 12.0085 3.36925C12.1758 3.27793 12.3849 3.33729 12.4778 3.50395L14.1184 6.4309C14.2113 6.59528 14.1486 6.80076 13.9813 6.89208C13.9278 6.92176 13.8721 6.93318 13.814 6.93318Z" fill="#272727"/>
<path d="M9.81259 10.3989C9.75217 10.3989 9.68943 10.383 9.63366 10.3487L6.72674 8.61355C6.56408 8.51537 6.51064 8.30761 6.61055 8.14779C6.71047 7.98798 6.92193 7.93546 7.08458 8.03364L9.99151 9.7688C10.1542 9.86697 10.2076 10.0747 10.1077 10.2346C10.0426 10.3396 9.92877 10.3989 9.81259 10.3989Z" fill="#272727"/>
<path d="M7.62135 15.2756C7.43313 15.2756 7.27977 15.1272 7.27512 14.9423C7.2728 14.7551 7.42384 14.5998 7.61438 14.5976L9.01091 14.5724C9.20146 14.561 9.35947 14.7186 9.36179 14.9058C9.36411 15.093 9.21308 15.2482 9.02253 15.2505L7.626 15.2756C7.626 15.2756 7.62135 15.2756 7.61903 15.2756H7.62135Z" fill="#272727"/>
<path d="M18.8889 6.93315C18.8331 6.93315 18.775 6.91945 18.7216 6.89206C18.5543 6.80073 18.4939 6.59525 18.5845 6.43087L20.225 3.50393C20.318 3.33954 20.5271 3.28018 20.6944 3.36922C20.8617 3.46055 20.9221 3.66603 20.8315 3.83041L19.191 6.75735C19.1282 6.86922 19.0097 6.93315 18.8889 6.93315Z" fill="#272727"/>
<path d="M22.8925 10.3989C22.7764 10.3989 22.6625 10.3419 22.5974 10.2345C22.4975 10.0747 22.551 9.86468 22.7136 9.76879L25.6206 8.03363C25.7832 7.93546 25.997 7.98797 26.0946 8.14779C26.1945 8.30761 26.1411 8.51765 25.9784 8.61354L23.0715 10.3487C23.0157 10.3829 22.953 10.3989 22.8925 10.3989Z" fill="#272727"/>
<path d="M25.0815 15.2756C25.0815 15.2756 25.0768 15.2756 25.0745 15.2756L23.678 15.2505C23.4874 15.2482 23.334 15.093 23.3387 14.9058C23.341 14.7208 23.4967 14.5724 23.6849 14.5724C23.6849 14.5724 23.6896 14.5724 23.6919 14.5724L25.0884 14.5976C25.279 14.5998 25.4323 14.7551 25.4277 14.9423C25.4254 15.1272 25.2697 15.2756 25.0815 15.2756Z" fill="#272727"/>
</g>
<defs>
<clipPath id="clip0_2721_960">
<rect width="30.9189" height="22" fill="white" transform="translate(0.891907 0.944595)"/>
</clipPath>
</defs>
</svg>
