<svg width="29" height="21" viewBox="0 0 29 21" fill="none" xmlns="http://www.w3.org/2000/svg">
<path d="M25.3404 0.944595H3.6611C1.64228 0.944595 0 2.4926 0 4.39553V17.4951C0 19.398 1.64228 20.946 3.6611 20.946H25.3404C27.3592 20.946 29.0015 19.398 29.0015 17.4951V4.39553C29.0015 2.4926 27.3592 0.944595 25.3404 0.944595ZM28.1819 4.39553V8.87846L22.5745 3.89948L18.9739 7.06248L14.7881 3.11693V1.71717H25.3404C26.9071 1.71717 28.1819 2.9188 28.1819 4.39553ZM0.819628 17.4937V4.39553C0.819628 2.96298 2.02034 1.79272 3.52349 1.7243V9.10652C3.11217 9.17922 2.80216 9.51847 2.80216 9.92614C2.80216 10.3338 3.11368 10.6731 3.52349 10.7458V11.4998C3.11217 11.5725 2.80216 11.9103 2.80216 12.3194C2.80216 12.7285 3.11368 13.0663 3.52349 13.139V13.8945C3.11217 13.9672 2.80216 14.305 2.80216 14.7141C2.80216 15.1232 3.11368 15.461 3.52349 15.5337V16.2878C3.11217 16.3605 2.80216 16.6983 2.80216 17.1074C2.80216 17.5165 3.11368 17.8543 3.52349 17.927V20.1663C2.02185 20.0979 0.819628 18.9276 0.819628 17.4951M3.85013 20.172V17.927C4.26146 17.8543 4.57147 17.5165 4.57147 17.1074C4.57147 16.6983 4.25995 16.3605 3.85013 16.2878V15.5337C4.26146 15.461 4.57147 15.1218 4.57147 14.7141C4.57147 14.3064 4.25995 13.9672 3.85013 13.8945V13.139C4.26146 13.0663 4.57147 12.7285 4.57147 12.3194C4.57147 11.9103 4.25995 11.5725 3.85013 11.4998V10.7458C4.26146 10.6731 4.57147 10.3338 4.57147 9.92614C4.57147 9.51847 4.25995 9.17922 3.85013 9.10652V1.71717H7.16796V4.62787C6.75664 4.70056 6.44512 5.03981 6.44512 5.44748C6.44512 5.85515 6.75664 6.1944 7.16796 6.2671V6.84439C6.75664 6.91709 6.44512 7.25491 6.44512 7.664C6.44512 8.0731 6.75664 8.41092 7.16796 8.48362V13.8959C6.75664 13.9686 6.44512 14.3064 6.44512 14.7155C6.44512 15.1246 6.75664 15.4625 7.16796 15.5351V16.2892C6.75664 16.3619 6.44512 16.6997 6.44512 17.1088C6.44512 17.5179 6.75664 17.8557 7.16796 17.9284V20.1734H3.85013V20.172ZM7.49612 20.172V17.927C7.90744 17.8543 8.21745 17.5165 8.21745 17.1074C8.21745 16.6983 7.90593 16.3605 7.49612 16.2878V15.5337C7.90744 15.461 8.21745 15.1218 8.21745 14.7141C8.21745 14.3064 7.90593 13.9672 7.49612 13.8945V8.48219C7.90744 8.4095 8.21745 8.07025 8.21745 7.66258C8.21745 7.25491 7.90593 6.91566 7.49612 6.84296V6.26567C7.90744 6.19297 8.21745 5.85515 8.21745 5.44606C8.21745 5.03696 7.90593 4.69914 7.49612 4.62644V1.71717H10.8139V11.5012C10.4026 11.5739 10.0911 11.9117 10.0911 12.3208C10.0911 12.7299 10.4026 13.0678 10.8139 13.1404V13.8959C10.4026 13.9686 10.0911 14.3064 10.0911 14.7155C10.0911 15.1246 10.4026 15.4625 10.8139 15.5351V20.1749H7.49612V20.172ZM11.1421 20.172V15.5323C11.5534 15.4596 11.8634 15.1203 11.8634 14.7127C11.8634 14.305 11.5519 13.9658 11.1421 13.8931V13.1376C11.5534 13.0649 11.8634 12.7271 11.8634 12.318C11.8634 11.9089 11.5519 11.5711 11.1421 11.4984V1.71717H14.4599V11.6352L13.2638 12.6016C13.1261 12.7128 13.111 12.9081 13.229 13.0378C13.3469 13.1675 13.5541 13.1818 13.6902 13.072L14.4599 12.4505V13.1048L13.2638 14.0712C13.1261 14.1824 13.111 14.3777 13.229 14.5074C13.3469 14.6371 13.5541 14.6514 13.6902 14.5416L14.4599 13.9202V14.5744L13.2638 15.5408C13.1261 15.652 13.111 15.8473 13.229 15.977C13.3469 16.1067 13.5541 16.121 13.6902 16.0112L14.4599 15.3898V16.044L13.2638 17.0105C13.1261 17.1216 13.111 17.3169 13.229 17.4452C13.3469 17.5749 13.5541 17.5892 13.6902 17.4794L14.4599 16.8579V20.1791H11.1421V20.172ZM25.7245 20.1449V16.8508L26.4942 17.4723C26.5562 17.5222 26.6319 17.5464 26.7075 17.5464C26.7997 17.5464 26.892 17.5093 26.957 17.4381C27.0749 17.3084 27.0583 17.1131 26.9207 17.0033L25.7245 16.0369V15.3826L26.4942 16.0041C26.5562 16.054 26.6319 16.0782 26.7075 16.0782C26.7997 16.0782 26.892 16.0412 26.957 15.9699C27.0749 15.8402 27.0583 15.6449 26.9207 15.5337L25.7245 14.5673V13.913L26.4942 14.5345C26.5562 14.5844 26.6319 14.6086 26.7075 14.6086C26.7997 14.6086 26.892 14.5716 26.957 14.5003C27.0749 14.3706 27.0583 14.1753 26.9207 14.0641L25.7245 13.0977V12.4434L26.4942 13.0649C26.5562 13.1148 26.6319 13.139 26.7075 13.139C26.7997 13.139 26.892 13.102 26.957 13.0307C27.0749 12.901 27.0583 12.7057 26.9207 12.5945L25.5612 11.4955L24.2017 12.5945C24.0641 12.7057 24.049 12.901 24.1669 13.0307C24.2849 13.1604 24.492 13.1747 24.6297 13.0649L25.3994 12.4434V13.0977L24.2032 14.0641C24.0656 14.1753 24.0505 14.3706 24.1684 14.5003C24.2864 14.63 24.4936 14.6443 24.6312 14.5345L25.4009 13.913V14.5673L24.2047 15.5337C24.0671 15.6449 24.052 15.8402 24.1699 15.9699C24.2879 16.0996 24.4951 16.1139 24.6327 16.0041L25.4024 15.3826V16.0369L24.2062 17.0033C24.0686 17.1145 24.0535 17.3098 24.1715 17.4381C24.2894 17.5678 24.4966 17.582 24.6342 17.4723L25.4039 16.8508V20.1706C25.3858 20.1706 25.3661 20.1734 25.348 20.1734H22.0861V16.8522L22.8558 17.4737C22.9178 17.5236 22.9934 17.5478 23.069 17.5478C23.1613 17.5478 23.2535 17.5108 23.3186 17.4395C23.4365 17.3098 23.4199 17.1145 23.2838 17.0047L22.0876 16.0383V15.3841L22.8573 16.0055C22.9193 16.0554 22.9949 16.0797 23.0706 16.0797C23.1628 16.0797 23.255 16.0426 23.3201 15.9713C23.438 15.8416 23.4214 15.6463 23.2853 15.5351L22.0891 14.5687V13.9144L22.8588 14.5359C22.9208 14.5858 22.9965 14.6101 23.0721 14.6101C23.1643 14.6101 23.2566 14.573 23.3216 14.5017C23.4395 14.372 23.4229 14.1767 23.2868 14.0655L22.0906 13.0991V12.4448L22.8604 13.0663C22.9224 13.1162 22.998 13.1404 23.0736 13.1404C23.1658 13.1404 23.2581 13.1034 23.3231 13.0321C23.441 12.9024 23.4244 12.7071 23.2883 12.5959L22.0921 11.6295V11.0536L22.8619 11.6751C22.9239 11.725 22.9995 11.7492 23.0751 11.7492C23.1673 11.7492 23.2596 11.7122 23.3246 11.6409C23.4426 11.5112 23.4259 11.3159 23.2898 11.2047L22.0937 10.2383V9.66244L22.8634 10.2839C22.9254 10.3338 23.001 10.358 23.0766 10.358C23.1688 10.358 23.2611 10.321 23.3261 10.2497C23.4441 10.12 23.4274 9.92471 23.2913 9.81353L21.9318 8.71453L20.5724 9.81353C20.4347 9.92471 20.4196 10.12 20.5376 10.2497C20.6555 10.3794 20.8627 10.3937 21.0003 10.2839L21.77 9.66244V10.2383L20.5739 11.2047C20.4363 11.3159 20.4211 11.5112 20.5391 11.6409C20.657 11.7706 20.8642 11.7849 21.0018 11.6751L21.7716 11.0536V11.6295L20.5754 12.5959C20.4378 12.7071 20.4226 12.9024 20.5406 13.0321C20.6586 13.1618 20.8657 13.1761 21.0033 13.0663L21.7731 12.4448V13.0991L20.5769 14.0655C20.4393 14.1767 20.4242 14.372 20.5421 14.5017C20.6601 14.6314 20.8672 14.6457 21.0049 14.5359L21.7746 13.9144V14.5687L20.5784 15.5351C20.4408 15.6463 20.4257 15.8416 20.5436 15.9713C20.6616 16.101 20.8687 16.1153 21.0064 16.0055L21.7761 15.3841V16.0383L20.5799 17.0047C20.4423 17.1159 20.4272 17.3112 20.5451 17.4395C20.6631 17.5678 20.8703 17.5835 21.0079 17.4737L21.7776 16.8522V20.1734H18.4598V16.8522L19.2295 17.4737C19.2915 17.5236 19.3671 17.5478 19.4427 17.5478C19.535 17.5478 19.6272 17.5108 19.6922 17.4395C19.8102 17.3098 19.7936 17.1145 19.6575 17.0047L18.4613 16.0383V15.3841L19.231 16.0055C19.293 16.0554 19.3686 16.0797 19.4442 16.0797C19.5365 16.0797 19.6287 16.0426 19.6937 15.9713C19.8117 15.8416 19.7951 15.6463 19.659 15.5351L18.4628 14.5687V13.9144L19.2325 14.5359C19.2945 14.5858 19.3701 14.6101 19.4457 14.6101C19.538 14.6101 19.6302 14.573 19.6953 14.5017C19.8132 14.372 19.7966 14.1767 19.6605 14.0655L18.4643 13.0991V12.4448L19.234 13.0663C19.296 13.1162 19.3716 13.1404 19.4473 13.1404C19.5395 13.1404 19.6317 13.1034 19.6968 13.0321C19.8147 12.9024 19.7981 12.7071 19.662 12.5959L18.3025 11.4969L16.943 12.5959C16.8054 12.7071 16.7903 12.9024 16.9082 13.0321C17.0262 13.1618 17.2334 13.1761 17.371 13.0663L18.1407 12.4448V13.0991L16.9445 14.0655C16.8069 14.1767 16.7918 14.372 16.9097 14.5017C17.0277 14.6314 17.2349 14.6457 17.3725 14.5359L18.1422 13.9144V14.5687L16.946 15.5351C16.8084 15.6463 16.7933 15.8416 16.9112 15.9713C17.0292 16.101 17.2364 16.1153 17.374 16.0055L18.1437 15.3841V16.0383L16.9475 17.0047C16.8099 17.1159 16.7948 17.3112 16.9128 17.4395C17.0307 17.5692 17.2379 17.5835 17.3755 17.4737L18.1452 16.8522V20.1734H14.8274V16.8522L15.5971 17.4737C15.6591 17.5236 15.7347 17.5478 15.8103 17.5478C15.9026 17.5478 15.9948 17.5108 16.0599 17.4395C16.1778 17.3098 16.1612 17.1145 16.0251 17.0047L14.8289 16.0383V15.3841L15.5986 16.0055C15.6606 16.0554 15.7362 16.0797 15.8119 16.0797C15.9041 16.0797 15.9964 16.0426 16.0614 15.9713C16.1793 15.8416 16.1627 15.6463 16.0266 15.5351L14.8304 14.5687V13.9144L15.6001 14.5359C15.6621 14.5858 15.7378 14.6101 15.8134 14.6101C15.9056 14.6101 15.9979 14.573 16.0629 14.5017C16.1808 14.372 16.1642 14.1767 16.0281 14.0655L14.8319 13.0991V12.4448L15.6017 13.0663C15.6637 13.1162 15.7393 13.1404 15.8149 13.1404C15.9071 13.1404 15.9994 13.1034 16.0644 13.0321C16.1824 12.9024 16.1657 12.7071 16.0296 12.5959L14.8334 11.6295V3.55311L19.0117 7.49153L22.6199 4.32283L28.1607 9.24336L28.2273 9.17637V17.4951C28.2273 18.8492 27.1551 19.9682 25.7699 20.1464" fill="#555555"/>
</svg>
