<?xml version="1.0" encoding="UTF-8"?>
<svg id="Layer_1" data-name="Layer 1" xmlns="http://www.w3.org/2000/svg" viewBox="0 0 145.76 110.09">
  <defs>
    <style>
      .cls-1 {
        fill: #fff;
      }
    </style>
  </defs>
  <path class="cls-1" d="M122.11,6.87H23.65c-9.17,0-16.62,7.46-16.62,16.62v63.11c0,9.17,7.46,16.62,16.62,16.62h98.45c9.17,0,16.62-7.46,16.62-16.62V23.49c0-9.17-7.46-16.62-16.62-16.62ZM135.01,23.49v21.6l-25.46-23.99-16.35,15.24-19.01-19.01v-6.74h47.92c7.12,0,12.9,5.79,12.9,12.9ZM10.75,86.6V23.49c0-6.9,5.45-12.54,12.28-12.87v35.57c-1.87.35-3.28,1.98-3.28,3.95s1.41,3.6,3.28,3.95v3.64c-1.87.35-3.28,1.98-3.28,3.95s1.41,3.6,3.28,3.95v3.64c-1.87.35-3.28,1.98-3.28,3.95s1.41,3.6,3.28,3.95v3.64c-1.87.35-3.28,1.98-3.28,3.95s1.41,3.6,3.28,3.95v10.79c-6.82-.33-12.28-5.97-12.28-12.87ZM24.51,99.5v-10.82c1.87-.35,3.28-1.98,3.28-3.95s-1.41-3.6-3.28-3.95v-3.64c1.87-.35,3.28-1.98,3.28-3.95s-1.41-3.6-3.28-3.95v-3.64c1.87-.35,3.28-1.98,3.28-3.95s-1.41-3.6-3.28-3.95v-3.64c1.87-.35,3.28-1.98,3.28-3.95s-1.41-3.6-3.28-3.95V10.59h15.07v14.02c-1.87.35-3.28,1.98-3.28,3.95s1.41,3.6,3.28,3.95v2.78c-1.87.35-3.28,1.98-3.28,3.95s1.41,3.6,3.28,3.95v26.07c-1.87.35-3.28,1.98-3.28,3.95s1.41,3.6,3.28,3.95v3.64c-1.87.35-3.28,1.98-3.28,3.95s1.41,3.6,3.28,3.95v10.82h-15.07ZM41.07,99.5v-10.82c1.87-.35,3.28-1.98,3.28-3.95s-1.41-3.6-3.28-3.95v-3.64c1.87-.35,3.28-1.98,3.28-3.95s-1.41-3.6-3.28-3.95v-26.07c1.87-.35,3.28-1.98,3.28-3.95s-1.41-3.6-3.28-3.95v-2.78c1.87-.35,3.28-1.98,3.28-3.95s-1.41-3.6-3.28-3.95v-14.02h15.07v47.14c-1.87.35-3.28,1.98-3.28,3.95s1.41,3.6,3.28,3.95v3.64c-1.87.35-3.28,1.98-3.28,3.95s1.41,3.6,3.28,3.95v22.35h-15.07ZM57.63,99.5v-22.35c1.87-.35,3.28-1.98,3.28-3.95s-1.41-3.6-3.28-3.95v-3.64c1.87-.35,3.28-1.98,3.28-3.95s-1.41-3.6-3.28-3.95V10.59h15.07v47.79l-5.43,4.66c-.62.53-.7,1.47-.16,2.1.53.62,1.47.7,2.1.16l3.5-3v3.15l-5.43,4.66c-.62.53-.7,1.47-.16,2.1.53.62,1.47.7,2.1.16l3.5-3v3.15l-5.43,4.66c-.62.53-.7,1.47-.16,2.1.53.62,1.47.7,2.1.16l3.5-3v3.15l-5.43,4.66c-.62.53-.7,1.47-.16,2.1.53.62,1.47.7,2.1.16l3.5-3v16h-15.07ZM123.85,99.37v-15.87l3.5,3c.28.24.63.36.97.36.42,0,.84-.18,1.13-.52.53-.62.46-1.56-.16-2.1l-5.43-4.66v-3.15l3.5,3c.28.24.63.36.97.36.42,0,.84-.18,1.13-.52.53-.62.46-1.56-.16-2.1l-5.43-4.66v-3.15l3.5,3c.28.24.63.36.97.36.42,0,.84-.18,1.13-.52.53-.62.46-1.56-.16-2.1l-5.43-4.66v-3.15l3.5,3c.28.24.63.36.97.36.42,0,.84-.18,1.13-.52.53-.62.46-1.56-.16-2.1l-6.18-5.29-6.18,5.29c-.62.53-.7,1.47-.16,2.1.53.62,1.47.7,2.1.16l3.5-3v3.15l-5.43,4.66c-.62.53-.7,1.47-.16,2.1.53.62,1.47.7,2.1.16l3.5-3v3.15l-5.43,4.66c-.62.53-.7,1.47-.16,2.1.53.62,1.47.7,2.1.16l3.5-3v3.15l-5.43,4.66c-.62.53-.7,1.47-.16,2.1.53.62,1.47.7,2.1.16l3.5-3v15.99c-.09,0-.17.01-.26.01h-14.81v-16l3.5,3c.28.24.63.36.97.36.42,0,.84-.18,1.13-.52.53-.62.46-1.56-.16-2.1l-5.43-4.66v-3.15l3.5,3c.28.24.63.36.97.36.42,0,.84-.18,1.13-.52.53-.62.46-1.56-.16-2.1l-5.43-4.66v-3.15l3.5,3c.28.24.63.36.97.36.42,0,.84-.18,1.13-.52.53-.62.46-1.56-.16-2.1l-5.43-4.66v-3.15l3.5,3c.28.24.63.36.97.36.42,0,.84-.18,1.13-.52.53-.62.46-1.56-.16-2.1l-5.43-4.66v-2.78l3.5,3c.28.24.63.36.97.36.42,0,.84-.18,1.13-.52.53-.62.46-1.56-.16-2.1l-5.43-4.66v-2.78l3.5,3c.28.24.63.36.97.36.42,0,.84-.18,1.13-.52.53-.62.46-1.56-.16-2.1l-6.18-5.29-6.18,5.29c-.62.53-.7,1.47-.16,2.1.53.62,1.47.7,2.1.16l3.5-3v2.78l-5.43,4.66c-.62.53-.7,1.47-.16,2.1.53.62,1.47.7,2.1.16l3.5-3v2.78l-5.43,4.66c-.62.53-.7,1.47-.16,2.1.53.62,1.47.7,2.1.16l3.5-3v3.15l-5.43,4.66c-.62.53-.7,1.47-.16,2.1.53.62,1.47.7,2.1.16l3.5-3v3.15l-5.43,4.66c-.62.53-.7,1.47-.16,2.1.53.62,1.47.7,2.1.16l3.5-3v3.15l-5.43,4.66c-.62.53-.7,1.47-.16,2.1.53.62,1.47.7,2.1.16l3.5-3v16h-15.07v-16l3.5,3c.28.24.63.36.97.36.42,0,.84-.18,1.13-.52.53-.62.46-1.56-.16-2.1l-5.43-4.66v-3.15l3.5,3c.28.24.63.36.97.36.42,0,.84-.18,1.13-.52.53-.62.46-1.56-.16-2.1l-5.43-4.66v-3.15l3.5,3c.28.24.63.36.97.36.42,0,.84-.18,1.13-.52.53-.62.46-1.56-.16-2.1l-5.43-4.66v-3.15l3.5,3c.28.24.63.36.97.36.42,0,.84-.18,1.13-.52.53-.62.46-1.56-.16-2.1l-6.18-5.29-6.18,5.29c-.62.53-.7,1.47-.16,2.1.53.62,1.47.7,2.1.16l3.5-3v3.15l-5.43,4.66c-.62.53-.7,1.47-.16,2.1.53.62,1.47.7,2.1.16l3.5-3v3.15l-5.43,4.66c-.62.53-.7,1.47-.16,2.1.53.62,1.47.7,2.1.16l3.5-3v3.15l-5.43,4.66c-.62.53-.7,1.47-.16,2.1.53.62,1.47.7,2.1.16l3.5-3v16h-15.07v-16l3.5,3c.28.24.63.36.97.36.42,0,.84-.18,1.13-.52.53-.62.46-1.56-.16-2.1l-5.43-4.66v-3.15l3.5,3c.28.24.63.36.97.36.42,0,.84-.18,1.13-.52.53-.62.46-1.56-.16-2.1l-5.43-4.66v-3.15l3.5,3c.28.24.63.36.97.36.42,0,.84-.18,1.13-.52.53-.62.46-1.56-.16-2.1l-5.43-4.66v-3.15l3.5,3c.28.24.63.36.97.36.42,0,.84-.18,1.13-.52.53-.62.46-1.56-.16-2.1l-5.43-4.66V19.43l18.97,18.97,16.39-15.27,25.16,23.7.31-.32v40.08c0,6.52-4.87,11.92-11.16,12.77Z"/>
</svg>