<?xml version="1.0" encoding="UTF-8"?>
<svg id="Layer_1" data-name="Layer 1" xmlns="http://www.w3.org/2000/svg" viewBox="0 0 145.76 110.09">
  <defs>
    <style>
      .cls-1 {
        fill: #fff;
      }
    </style>
  </defs>
  <path class="cls-1" d="M87.47,4.79c-1.14-.2-2.41-.16-3.54.11l-57.66,13.62c-1.33.31-2.64.05-3.76-.73L4.31,5.03v79.06c0,2.21.72,4.32,2.25,5.92l12.09,12.76c1.65,1.73,3.9,2.66,6.21,2.66,1.15,0,2.29-.23,3.38-.7l56.13-24.27c1.16-.5,2.72-.52,3.9-.05l53.18,21.13V14l-53.97-9.21ZM8.39,12.28l7.43,5.36c-.05.13-.23.25-.29.38-.63,1.54-1.34,3.13-1.1,4.43-.72-.52-1.78-.6-2.77-.68-.51-.04-1.22-.1-1.45-.22-.46-.26-.87-.38-1.88-.38-.06-.12.06-.23.06-.34v-8.56ZM8.39,23.39c0-.37-.12-.81-.23-1.27.04,0-.04,0,0,0,.7,0,1.28.05,1.65.26.91.51,3.22.15,4.11.89.32.27.81.36,1.41.36.06,0,.12,0,.18,0,0,.08.02.16.06.23.83,1.33,2.33,3.47,3.74,5.18-.64.98-.77,2.18-.64,2.74.05.22-.14.7-.33,1.17-.06.15-.13.32-.19.49-.26-.04-.49-.06-.68-.07-.8-.04-1.35-.22-1.63-.55-.23-.27-.31-.66-.25-1.19.07-.61-.15-1.24-.64-1.81-.75-.88-1.95-1.44-2.68-1.48-.15,0-.25-.14-.45-.55-.22-.44-.54-1.09-1.35-1.13-.62-.03-.91.31-1.09.51-.16.18,0,.31-.93-.12-.11-.05-.04-.11-.04-.17v-3.48ZM19.58,31.56c-.06-.26-.02-1.04.36-1.77.74.84,1.49,1.38,1.95,1.66.39.24.76.48,1.43.7v3.15c-1.36-.84-2.81-1.4-4.08-1.69.04-.11,0-.21.04-.32.27-.66.41-1.23.29-1.74ZM26.71,101.25c-1.84.79-4,.35-5.39-1.1l-11.88-12.76c-.85-.9-1.06-2.07-1.06-3.31V27.94c1.36.57,1.51.38,1.97-.16.13-.16.02-.19.19-.18.22,0,.25.15.48.61.22.44.48,1.04,1.22,1.07.45.02,1.41.47,1.99,1.14.32.37.45.74.41,1.09-.09.8.07,1.44.47,1.91.46.54,1.22.83,2.31.89.25.01.72.05,1.13.12,1.57.27,3.43,1.01,4.79,2.08v51.01c-.68.3-.36.59-.49.84-.59,1.11-.19,2.66.49,4.08v2.09c-.68.11-.48.32-.58.74-.11.46-.1.91.58,1.38v.98c0,.38.14.68.51.68.34,0,.52-.25.57-.57.33.23.64.47,1.01.72.61.41,1.17.8,1.59,1.15.32.26.62.66.93,1.12l-1.22.52ZM28.8,100.35c-.38-.59-.79-1.11-1.22-1.47-.45-.38-.88-.78-1.52-1.21-.38-.26-1.39-.68-1.39-1.1v-1.33s-.02-.09.04-.17c.25-.3.25-.72.23-.86-.05-.27-.27-.63-.27-1.03v-6.07c0-.8,1.21-1.46,1.89-1.68,0,0-.08,0-.08.01.08.11.12.21.18.32,0,.01,0,.03,0,.04.06.1.11.2.15.29,0,.02.01.03.02.05.04.09.07.18.09.26,0,.01,0,.02,0,.03.02.08.03.16.03.22h0c0,.1-.04.15-.06.18-.14.18-.27.32-.39.44-.25.27-.49.52-.51.9-.02.46.3.88.83,1.42.36.37.76.57,1.21.61.03,0,.06,0,.12,0,.11,0,.21,0,.31-.01.07,0,.14-.02.21-.03l.25-.04c.14-.02.25-.04.35-.04h.08c.14.01.31.06.52.35l.03.04s.03.04.05.07l.13.19h0s.02.03.02.03l.06.09c.48.69,1.01,1.33,1.68,1.39,0,0,.04,0,.04,0,.04,0,.07,0,.11,0,.76-.04,1.27-.81,1.59-1.39.07-.13.14-.27.22-.42.28-.59.55-1.24.82-1.88.84-2.02,1.71-4.1,3-4.43.23-.06.49-.12.76-.18,2.13-.48,5.69-1.29,8-4.07,1.46-1.76,1.7-2.65,1.87-3.23.11-.41.16-.61.58-.92.02-.01.04-.08.04-.08.01,0,.02.04.02.04,0,0,0,.03,0,.03,0,0,.03,0,.03,0,0,0,0,0,0,0,.01,0,.02-.01.03-.02,0,0,.01,0,.02-.01,1.04-.86.53-1.82-.37-2.98.05,0,.09-.01.13-.02.2-.02.41-.04.61-.06h.17c.23-.02.45-.03.64-.02h.08c.11,0,.21.02.3.03.26.03.42.09.53.15.01,0,.02.01.03.02.36.25.54.87.71,1.47.27.93.61,2.09,1.82,2.26,1.31.18,2.17,1.49,2.13,2.13,0,.03,0,.05,0,.08-.01.06-.02.12-.02.18-.02.57.4.96.8,1.35.38.36.74.7.72,1.12,0,.03,0,.06-.01.12,0,.03,0,.06,0,.09-.03.62.44,1.37,2.81,1.5l.05-.47v.47s.04,0,.04,0c.9.04,2.08-.03,2.58-.29.03-.02.06-.04.09-.05.02-.01.04-.03.07-.04h0s.03-.02.04-.02c.35-.19.82-.3,1.25-.29.22.01.4.06.55.14.02.01.05.03.09.06.19.12.42.19.68.21,0,0,.08,0,.09,0,.28,0,.57-.04.84-.09l.2-.04s.04,0,.04,0c.22-.04.46-.09.66-.11.04,0,.08,0,.16,0,.04,0,.07,0,.11.02.02,0,.04.01.06.02.39.18.72.34,1.01.49l-39.88,17.24ZM38.17,34.06c-.13-.73-.77-1.38-1.9-1.93-.94-.46-2.66-.4-3.91.14-.8.34-1.31.83-1.5,1.42-.14.45-.55.62-1.14.82-.53.18-1.34.45-1.22,1.34.08.6.48,1.03.8,1.37.44.47.46.42.37.59-.26.47-1.14,1.02-1.82,1.02h-.02c-.29,0-.49,0-.64-.31-.47-.95-.89-1.04-1.4-1.19-.41-.12-1.1-.14-1.1-.68v-3.95c1.36.46,2.98.47,4.49-.78,1.61-1.34,3.81-2.76,5.5-1.91.54.27,1.11.45,1.76.63,1.42.4,2.87.82,3.75,2.28l.32.55c.76,1.27,1.37,2.31,2.01,2.83-.16.53-.32.67-.37.71-.5.34-1.57,1.3-2.7,2.36-.98-1.05-2.59-2.86-1.96-3.52.56-.59.79-1.19.68-1.78ZM25.52,38.31c.45.13.61.2.9.78.31.61.79.95,1.43.97,1.03.02,2.22-.84,2.66-1.64.46-.81-.13-1.43-.51-1.84-.26-.28-.52-.55-.56-.85,0-.04,0-.06,0-.06.04-.08.39-.2.58-.26.61-.2,1.44-.49,1.74-1.43.1-.31.44-.61.97-.84.99-.43,2.42-.5,3.12-.16.82.4,1.31.84,1.38,1.25.05.28-.1.61-.44.96-1.32,1.39.93,3.76,2.28,5.17,0,0,0,0,0,0l.24.25c.4.41.77.8,1.03,1.11.67.79.6,1.42.53,2.02-.04.39-.09.79.08,1.18.15.34.59,1.45.09,1.74-.27.15-.45.47-.55,1-.28,1.49.04,5.31.85,6.3.37.46.24.79-.52,2.01-.19.31-.41.67-.64,1.07-1.01,1.81-1.79,2.39-3.19,2.4-1.39.01-1.9,1.34-2.21,2.13-.06.17-.07.38-.13.49-.78.11-.5,1.36-1.18,2.13h0c0,.27-.12.48-.11.67,0,.05-.04.12-.14.22-.28.31-1.16.62-2.43.64-1.9.02-1.98,1.97-2.01,3.13,0,.12-.01.23-.02.35-.02.41-.23.58-.69.91-.41.29-.92.65-1.26,1.35-.27.56-.32.96-.36,1.26-.04.37.11.45-.47.71-.75.33-1.34.82-1.34,1.41v-36.95c0,.25.56.35.84.44ZM48.4,74.97h-.01s0,.01,0,.01c0,0,0,0,0,0,0,0,0,0,0,0,0,0,0,0,0,0,0,0-.02.01-.03.02-.02.01-.03.03-.04.03-.7.51-.82.91-.95,1.38-.14.51-.36,1.28-1.69,2.88-2.1,2.53-5.33,3.27-7.48,3.76-.29.06-.55.12-.78.18-1.75.44-2.71,2.75-3.64,4.98-.27.65-.53,1.26-.8,1.83-.07.14-.13.26-.19.38-.45.82-.73.89-.83.9-.22-.02-.55-.35-.99-.98,0,0-.02-.03-.02-.03l-.05-.07s0,0,0-.01l-.12-.18s-.05-.07-.07-.1l-.05-.07c-.33-.44-.72-.67-1.2-.71h-.06s-.06,0-.1,0c-.18,0-.35.03-.5.05l-.24.04c-.05,0-.1.01-.15.02-.06,0-.13,0-.2,0h-.05c-.15-.02-.36-.07-.62-.34-.52-.53-.56-.69-.56-.7.02-.05.16-.2.26-.31.13-.13.28-.3.45-.51.15-.2.24-.44.26-.7,0-.08,0-.17,0-.26,0-.02,0-.04,0-.06-.01-.08-.03-.17-.05-.25,0-.01,0-.03-.01-.04-.02-.08-.05-.15-.08-.22,0-.01-.01-.03-.02-.04-.03-.08-.07-.16-.11-.24,0-.02-.02-.04-.03-.05-.04-.08-.08-.15-.13-.22,0,0,0-.01,0-.02,0,0,0,0,0,0,.68-.13,1.3-.55,1.69-1.17.42-.67.49-1.44.18-2.02-.07-.13-.29-.54-.74-.56-.23,0-.4.08-.54.15l-.05.03c-.1.05-.16.08-.23.07-.13,0-.33-.13-.55-.36-.55-.56-1.1-.95-1.54-1.25-.27-.19-.64-.45-.68-.53.04-.11.12-.27.2-.43.34-.65.84-1.64.17-2.76-.25-.42-.32-.82-.21-1.17.13-.41.5-.76,1.07-1.01,1.01-.44,1.13-.87,1.2-1.46.03-.26.06-.54.27-.96.23-.48.58-.73.95-.99.49-.35,1.05-.74,1.09-1.63,0-.12,0-.24.01-.36.05-1.52.22-2.21,1.07-2.21,1.41-.02,2.56-.37,3.09-.94.14-.16.24-.33.3-.51,1.57,1.28,3.79,2.64,4.66,2.68.3.01.63.38,1.01.8.36.4.76.85,1.3,1.2.07.05.15.09.23.14.62.34,1.25.44,1.67.46h.11c.75.03,1.4-.13,1.75-.44,0,0,.01,0,.02-.01.16.07.55.35,1.47,1.44.07.08.15.17.22.26,0,0,.03.03.03.03l.14.17c.11.13.23.27.36.44l.21.26s0,0,0,.01h0s0,0,0,0h0c1.45,1.8,1.4,1.99,1.01,2.31ZM24.73,76.95c.37.62.24,1.15-.12,1.84,0,.01.06.03.06.04v-2.33c0,.15-.04.3.05.45ZM25.31,80.96c.41.29.83.64,1.32,1.14.41.42.75.63,1.14.65.28.01.5-.08.68-.17l.04-.03h0s0,0,0,.01c.15.27.09.69-.15,1.06-.25.39-.76.8-1.41.77-.03,0-.05,0-.08,0l-.35-.02s0-.06,0-.06h0c-.77,0-1.83.88-1.83,1.5v-5.51c0,.23.33.44.63.65ZM62.65,82.32l.14.19.08.17-.22-.36ZM73.68,78.83c-.19.55-.41,1.44-.61,2.38l-3.29,1.42c-.46-.28-1.03-.58-1.7-.88-.07-.03-.15-.06-.24-.08-.08-.02-.17-.03-.27-.04,0,0-.06,0-.07,0-.02,0-.04,0-.06,0-.05,0-.09,0-.14,0-.27.02-.55.07-.78.12h-.03s-.04.01-.04.01l-.17.03c-.21.04-.44.08-.63.07v.47s-.05-.48-.05-.48c-.11,0-.19-.03-.22-.05,0,0-.03-.02-.04-.02-.05-.03-.09-.06-.14-.09-.27-.15-.59-.23-.94-.25-.02,0-.03,0-.02,0,0,0-.04,0-.05,0-.58-.03-1.22.13-1.69.4-.01,0-.04.02-.05.03,0,0-.03.02-.03.02-.04.02-.08.05-.11.07-.09.04-.3.09-.6.13-.39.05-.93.08-1.53.05,0,0-.06,0-.07,0-1.46-.08-1.91-.43-1.9-.53.01-.07.02-.14.02-.21.03-.85-.55-1.4-1.01-1.85-.23-.22-.51-.49-.5-.64.02-.07.03-.15.03-.23.06-1.21-1.24-2.87-2.95-3.11-.58-.08-.77-.65-1.04-1.58-.22-.76-.45-1.54-1.08-1.98-.04-.02-.07-.05-.11-.07,0,0-.01,0-.02-.01,0,0-.03-.02-.03-.02-.29-.15-.68-.24-1.19-.26h0s0,0-.01,0h-.08c-.22-.01-.46,0-.73,0h-.19c-.21.03-.43.05-.65.08-.24.03-.48.06-.7.1l-.05-.06s-.02-.03-.03-.03c-.12-.15-.24-.29-.35-.42l-.17-.21c-.08-.09-.15-.18-.23-.27-1.09-1.28-1.68-1.76-2.17-1.79-.02,0-.04,0-.06,0-.2,0-.39.07-.55.21-.02.02-.03.03-.06.06-.1.09-.48.23-1.11.21h-.04c-.46-.03-.92-.15-1.28-.35-.06-.03-.11-.06-.17-.1-.44-.28-.78-.67-1.11-1.04-.5-.56-.97-1.08-1.67-1.12-.56-.03-2.96-1.43-4.59-2.87.11-.58.33-.98.44-1.07.51,0,.72-.53.93-1.09.33-.86.64-1.52,1.33-1.52,2.01-.02,2.99-1.07,4-2.89.22-.39.43-.73.62-1.04.72-1.16,1.28-2.08.45-3.1-.68-.83-.97-5.28-.54-5.9.48-.29,1.12-1.04.28-2.93-.07-.15-.04-.4,0-.69.08-.69.18-1.64-.75-2.74-.25-.3-.6-.67-.98-1.05.8-.75,2.08-2.22,2.56-2.54.3-.2.53-.72.71-1.4h0c.24,0,.6.23.95-.15.29-.31.59-.57.94-1.03.87-1.15,1.94-2.5,3.39-3.34,2.1-1.2,2.02-2.56,1.95-3.8,0-.18-.02-.34-.02-.52,0-.3.26-.87,1.01-1.61.93-.9,1.95-1.41,2.41-1.39.03,0,.05,0,.07.01.33.1.64.32.91.51.3.21.55.39.84.41.31,0,.7-.14.8-.93.04-.27.84-.3,1.49-.32.7-.03,1.5-.06,2.13-.34.56-.25.96-.58,1.35-.9.62-.51,1.15-.94,2.25-1.05,1-.09,1.79-.76,2.48-1.35.57-.49,1.11-.96,1.61-.92.16,0,.32.06.49.17.47.3.72.62.67.85-.07.31-.65.71-1.64.86-.59.09-1.05.38-1.32.84-.59.18-1.04.47-1.36.86-.43.53-1.03,1.04-1.61,1.54-1.15,1-2.34,2.03-2.44,3.32l-.03.41c-.09,1.37-.13,1.83-.65,2.43-.94,1.08-1.38,1.73-1.15,2.25.06.15.24.41.7.43,0,0,.04,0,.04,0,.03,0,.05,0,.08,0h.09c.16,0,.32-.01.48,0l.02-.47.03.47c.85.05.84.33.83.53-.03.68.48,1.1.93,1.47.52.43.84.73.82,1.22,0,.04,0,.08-.01.13l-.05.31c-.22,1.32-.58,3.52.51,4.87.53.65,1.31,1.01,2.36,1.06h.06s.06,0,.06,0c1.13.03,2.11-.06,2.98-.14.44-.04.86-.08,1.24-.09.16,0,.31-.01.47,0,.05,0,.11,0,.18,0,.91.05,1.48.34,1.96,1.01l.17.23c1.32,1.74,3.08,2.72,5.07,2.82h.07c.24.01.48.01.73,0,.06,0,.12,0,.17-.01l.59-.04c.18-.01.35-.03.54-.04.76-.05,1.35-.06,1.86-.04h.14c1.3.07,1.5.36,1.52.4.03.06,0,.19-.09.36-.03.05-.06.11-.1.17-.97,1.44-1.78,3.97-1.87,5.89-.05,1.08.12,1.87.52,2.36.2.25.42.49.63.73.53.6,1.09,1.22,1.07,1.63,0,.07-.03.19-.18.35-.47.49-1.04,1.26-1.08,2.13-.03.65.24,1.25.79,1.72.42.36.62.78.6,1.24,0,.12-.03.23-.05.31-.07.04-.18.09-.37.17,0,0,0,0,0,0-.52.21-1.21.45-1.86.62,0,0-.07.02-.07.02-.75.2-1.39.09-1.84.11l-.04-.23h-.12s.12.23.11.23c0,0,.11.22.11.22h0c-.68,0-.73-.03-1.12-.07h-.24c-.64-.06-1.4-.12-2.14-.16,0,0-.06,0-.07,0-2.36-.11-3.33.08-3.56.7-.06.16-.1.35-.11.54-.05.96.52,2.3,1.42,2.54.93.25,1.08.58,1.08.58h0s-.05.07-.46.34c-.48.31-.93.29-1.36.31-.98.04-1.74.21-1.83,2.14-.07,1.4.71,2.58,1.39,3.63.6.92,1.16,1.78,1.12,2.65,0,.18-.04.36-.1.54ZM64.33,31.1c.58,1.4,2.2,2.64,3.53,2.7.04,0,.07,0,.11,0,.71,0,1.29-.33,1.63-.94.62-1.11.07-2.52-.46-3.89-.36-.93-.73-1.88-.6-2.49.22-1.02,2.89-1.83,4.33-2.26.51-.15.95-.29,1.25-.41.89-.36.82-1.27.78-1.87-.02-.23-.05-.62.03-.7.02-.02.12-.06.34-.05.53.02.72.33,1.03.92.35.64.83,1.53,2.17,1.59.09,0,.18,0,.28,0,.11,0,.22,0,.33,0,.76.04,1.35.29,1.75.75.44.51.64,1.28.56,2.16-.05.49.09.93.39,1.29.58.68,1.64.86,2.42.9.3.01.61,0,.92-.02l.23,37.44c-.29-.48-.62-.99-1.04-1.51,0,0,0,0,.01,0,.08-.05.25-.16.31-.4.03-.11.1-.34.11-.63.03-.53-.11-1.3-.93-2-.33-.28-.48-.59-.46-.95.02-.45.31-.99.82-1.52.28-.29.42-.61.44-.96.04-.8-.62-1.53-1.31-2.3-.2-.22-.41-.46-.6-.69-.23-.29-.34-.91-.31-1.72.08-1.74.83-4.11,1.71-5.4.06-.09.11-.17.15-.25.32-.59.22-1.02.08-1.27-.3-.53-1.02-.8-2.3-.87h-.15c-.54-.03-1.16-.02-1.95.03-.19.01-.37.02-.55.04l-.59.04c-.05,0-.1,0-.15.01-.21.01-.43.01-.63,0,0,0-.05,0-.05,0-1.74-.09-3.21-.92-4.37-2.45l-.13-.18s-.03-.04-.03-.04c-.64-.91-1.47-1.34-2.7-1.4-.06,0-.13,0-.19,0-.17,0-.34,0-.52,0-.4.02-.83.05-1.29.09-.84.07-1.79.16-2.87.13v.47s-.05-.47-.05-.47h-.06c-.76-.04-1.3-.27-1.65-.71-.83-1.03-.49-3.04-.31-4.13l.05-.32c.01-.08.02-.15.02-.23.05-1-.65-1.58-1.16-2-.37-.31-.6-.51-.59-.7.02-.53-.17-1.43-1.74-1.52,0,0-.04,0-.04,0-.14,0-.29,0-.43,0,.13-.21.38-.55.88-1.12.72-.83.77-1.54.87-2.97l.03-.4c.06-.9,1.11-1.8,2.11-2.67.61-.53,1.24-1.07,1.72-1.66.09-.11.21-.2.34-.29,0,1.05.48,2.13.61,2.39.1.21-.53,1.11-.87,1.6-.84,1.2-1.8,2.55-1.27,3.81ZM83.72,64.09v.02h0s0-.01,0-.02ZM137.37,95.95l-47.86-19.06c-2.1-.84-4.54-.8-6.63.09l-8.74,3.77c.15-.65.29-1.23.43-1.62.09-.26.14-.53.15-.8.06-1.18-.62-2.21-1.27-3.22-.66-1.02-1.29-1.99-1.24-3.08.06-1.23.24-1.24.92-1.27.48-.02,1.14-.05,1.84-.51.58-.38.86-.76.88-1.17.04-.96-1.33-1.33-1.78-1.45-.34-.09-.75-.83-.72-1.49,0-.08.01-.15.03-.21.13-.07.66-.23,2.66-.14,0,0,.04,0,.04,0,.71.03,1.43.09,2.06.14h.18c.41.05.76.07,1.01.08,0,0,.04,0,.05,0,0,0,.01,0,.02,0,.01,0,.02-.02.03-.02.02,0,.03-.02.05-.02h.07s.02.02.03.02h.05c.53,0,1.22-.13,2.05-.35,0,0,.06-.01.06-.01.57-.15,1.16-.35,1.66-.54.7.82,1.17,1.66,1.59,2.4.12.22.24.42.35.62l.03,4.92c0,.42.34.41.76.41h0c.42,0,.75-.08.75-.5l-.02-3.19c.56.5,1.02.92,1.58.92.24,0,.51-.04.82-.2l.05-.02c.96-.49,1.3-.61,1.75-.28.97.72,2.1-.2,3.29-1.17l.27-.22c.43-.35.86-.38,1.32-.41.6-.04,1.35-.09,1.69-1.06.42-1.2,1-1.7,2.13-1.86,1.08-.14,1.61-.93,1.58-1.63-.03-.6-.45-1.03-1.03-1.06-.34-.02-.7.09-1.02.18-.2.06-.54.16-.61.14,0,0-.06-.09-.05-.44.05-1.05-.36-1.5-.66-1.83-.23-.26-.38-.41-.35-.88.07-1.43-.01-2.53-1.63-3.61.6-.11,1.83-.04,2.12.28.43.48,1.23.59,2,.7.64.09,1.44.2,1.5.51.15.85.84,1.51,1.54,1.46.47-.03.99-.39,1.04-1.32.02-.33.15-.59.42-.79.47-.35,1.26-.46,1.98-.28,1.01.25,2.62-.49,4.04-1.15.6-.28,1.16-.54,1.5-.63,0,0,0,0,0,0,0,0,.01,0,.02,0,.02,0,.06-.01.06-.02h0s.03-.01.04-.01c.01,0,.02,0,.04-.02.01,0,.05-.02.06-.03,0,0,0,0,0,0,.03-.01.06-.03.09-.05.04-.02.07-.04.11-.06.03-.02.06-.05.09-.07.03-.02.05-.04.08-.07.03-.03.06-.06.09-.09.02-.02.05-.05.07-.07.03-.03.05-.06.08-.09.02-.03.04-.05.06-.08.02-.03.05-.06.07-.1.02-.03.04-.06.06-.09.02-.03.04-.06.06-.09.02-.03.04-.07.06-.1.02-.03.03-.06.05-.09,0-.02.02-.03.03-.05.02-.04.05-.09.07-.13.01-.02.02-.03.03-.05.04-.08.08-.15.13-.23.33-.57.57-.77,1.11-.66.48.09.56.39.57,1.37,0,.78.02,1.76.91,2.22.63.32.73,1,.75,1.28.04.62-.2,1.21-.59,1.47-.51.35-.9,1.19-1.06,2.32-.24,1.67.02,4.09,1.5,5.89,1.55,1.9,2.88,2.31,3.72,2.33.62,0,1.17-.2,1.5-.58.1-.11.54-.12.86-.13.67-.02,1.59-.04,2.04-.83.12-.21.12-.21.42-.18.4.04,1,.09,1.71-.63.39-.4,1.44-.07,2.31.21.99.31,1.93.6,2.62.25.73-.36.87-1.11.99-1.71.16-.82.24-.87.64-.82.66.08,1.41,0,2.07-.06h.13c.52-.06,1.57-.11,1.57-.09v30.79ZM106.19,32.02c.36.09.81.18,1.34.29,1.48.3,4.57.92,4.47,1.84-.07.64-.63,1.36-1.08,1.94-.5.64-.86,1.1-.65,1.57.12.26.39.41.79.43.04,0,.09,0,.13,0,.46,0,.92,0,1.38.03,1.15.05,2.72.21,4,.65-.47.72-.91,1.16-1.16,1.29-.88.45-2.2,1.59-2.24,2.6-.02.42.18.79.55,1.03.43.27.62.7.55.94-.07.25-.45.42-1.02.43-1.06.03-1.74.26-2.14.71-.43.49-.43,1.13-.38,1.69.03.26-.12.47-.37.77-.3.36-.85,1.04-.04,1.79.23.21.83.9,2.37,3.2-.02.04-.05.09-.07.13-.2.36-.38.71-.64.84-.02,0-.04.02-.07.03-.05.01-.11.03-.17.05l-.13.05s0,0,0,0c-.37.14-.82.35-1.33.58-1.09.5-2.73,1.26-3.41,1.09-.99-.25-2.08-.08-2.77.44-.5.37-.78.89-.81,1.51-.01.23-.08.41-.15.42-.15,0-.47-.22-.55-.68-.17-.99-1.3-1.14-2.3-1.28-.55-.08-1.23-.17-1.44-.4-.61-.68-2.4-.77-3.26-.51-.54.17-.69.47-.72.69-.05.33.14.64.56.91,1.25.81,1.35,1.45,1.28,2.83-.04.86.32,1.25.6,1.57.26.28.45.49.41,1.15,0,.22-.04.87.4,1.22.43.34.98.17,1.47.03.26-.07.52-.16.71-.14.05,0,.13,0,.13.16,0,.22-.19.58-.76.65-1.49.2-2.36.94-2.9,2.48-.13.37-.29.39-.86.43-.5.04-1.18.08-1.84.62l-.28.22c-.82.67-1.75,1.43-2.13,1.15-.96-.7-1.82-.26-2.74.2l-.05.03c-.46.23-.57.19-1.5-.66-.14-.13-.29-.26-.46-.41,0,0,0-.01-.01-.01l-.25-40.05c.29-.07.58-.15.86-.25.17-.06.35-.08.54-.07.89.04,2.01.77,3,1.41l.06.04c1.16.75,2.25,1.47,3.3,1.52.36.01.7-.05,1-.2,2.09-1.01,5.64-2.22,8.12-2.47.28-.03.58-.04.89-.02.74.03,1.42.19,1.92.35-.92.21-1.46.85-1.54,1.48-.08.59.25,1.39,1.41,1.7ZM122.81,45.36c.47.62,1.26,1.03,2.04,1.07.28.03.99.99,1.41,1.56.58.79,1.14,1.54,1.72,1.9-.41,1.02-.73,1.9-.41,2.62.14.31.08.47.02.56-.2.33-.88.59-1.69.65-1.05.08-1.34,1.26-1.6,2.3-.14.55-.29,1.18-.52,1.39-.17.16-.27.36-.27.59-.01.63.65,1.27,1.56,2.17.77.76,1.65,1.61,1.86,2.3.27.85,1.05,2.48,1.8,3.95-.89-.23-1.77-.31-2.36.3-.39.4-.64.38-.95.35-.36-.03-.91-.09-1.33.66-.17.3-.6.33-1.24.35-.58.01-1.17.03-1.54.45-.11.13-.38.25-.77.25-.52,0-1.61-.28-3-1.98-1.28-1.56-1.51-3.69-1.29-5.16.14-.93.44-1.52.66-1.67.67-.45,1.06-1.36,1-2.32-.06-.93-.52-1.68-1.26-2.06-.36-.18-.39-.65-.39-1.39,0-.86-.02-2.04-1.34-2.29-.76-.15-1.27.1-1.63.47-1.11-1.64-1.89-2.68-2.31-3.07-.1-.09-.12-.14-.12-.14,0-.07.16-.25.24-.35.27-.33.65-.79.58-1.46-.05-.52,0-.8.15-.97.21-.24.7-.37,1.46-.39,1.45-.04,1.82-.8,1.9-1.13.19-.69-.2-1.51-.95-1.99-.11-.07-.12-.12-.11-.18.02-.47.89-1.38,1.73-1.81.48-.24,1.06-.87,1.61-1.76.42.22.74.46.96.73.7.86,1.64,1.4,2.46,1.87,1.12.64,1.6.98,1.49,1.49-.23,1,.11,1.72.43,2.14ZM137.37,64.21s-1.12.03-1.67.08h-.09c-.61.07-1.33.14-1.88.07-1.35-.17-1.57.93-1.7,1.58-.11.55-.2.9-.48,1.04-.3.15-.93,0-1.58-.2-1.16-2.23-1.92-3.86-2.15-4.61-.28-.91-1.25-1.86-2.1-2.69-.47-.46-1.16-1.14-1.26-1.43.4-.41.57-1.09.75-1.81.17-.69.39-1.55.76-1.58.56-.04,1.91-.24,2.43-1.11.17-.29.32-.78.03-1.43-.17-.39.15-1.22.49-2.03.14-.03.27-.09.38-.18.6-.45,1.16-.65,1.61-.57.34.06.64.29.88.68.74,1.18,2.42.91,4.13.63.46-.08,1.44-.14,1.44-.2v13.75ZM137.37,49.51c0,.06-1.11.13-1.61.22-1.39.23-2.73.45-3.13-.2-.39-.62-.92-1-1.53-1.11-.72-.13-1.54.12-2.36.74-.02.01-.03.02-.08.01-.4-.06-1.15-1.07-1.65-1.75-.76-1.02-1.41-1.9-2.13-1.94-.51-.02-1.03-.29-1.34-.7-.29-.37-.38-.84-.26-1.36.28-1.25-.85-1.89-1.94-2.52-.75-.43-1.61-1.23-2.2-1.95-.38-.47-.93-.81-1.69-1.49h0c-1.49-.68-3.46-.55-4.85-.62-.44-.02-.88.13-1.31.13.1-.15.24-.24.35-.39.53-.68,1.19-1.48,1.28-2.38.18-1.78-2.82-2.36-5.23-2.85-.51-.1-.95-.18-1.29-.27-.48-.13-.75-.37-.71-.66.04-.35.5-.72,1.26-.72.71,0,1.07-.22,1.08-.65.02-.94-2.38-1.46-3.61-1.52-.36-.02-.7,0-1.02.02-2.59.26-6.28,1.51-8.44,2.56-.16.08-.34.11-.54.1-.79-.04-1.82-.71-2.83-1.36l-.06-.04c-1.09-.71-2.32-1.51-3.47-1.56-.32-.01-.62.03-.9.12-.18.06-.37.11-.56.16l-.09-15.45c0-.42-.34-1.12-.76-1.12h0c-.42,0-.75.64-.75,1.06l.1,15.67c-.3.02-.59.09-.87.07-.83-.04-1.47-.22-1.75-.55-.14-.16-.19-.33-.17-.56.11-1.14-.17-2.15-.78-2.86-.57-.66-1.41-1.03-2.42-1.08-.13,0-.27,0-.4,0-.07,0-.14,0-.2,0-.81-.04-1.05-.48-1.39-1.1-.33-.61-.74-1.36-1.82-1.41-.48-.02-.82.09-1.06.34-.37.38-.33.94-.29,1.43.05.66.01.84-.19.93-.26.1-.68.23-1.17.38-1.96.59-4.64,1.4-4.98,2.97-.19.88.21,1.93.64,3.03.45,1.16.92,2.37.52,3.08-.18.33-.48.48-.87.46-.97-.05-2.26-1.06-2.71-2.12-.32-.78.47-1.91,1.17-2.91.7-.99,1.3-1.84.95-2.55-.39-.79-.68-1.93-.41-2.56h0c.08-.19.24-.43.7-.49,1.35-.2,2.25-.8,2.42-1.59.1-.46,0-1.15-1.08-1.85-.31-.2-.63-.31-.96-.32-.88-.03-1.57.56-2.26,1.15-.62.52-1.25,1.06-1.96,1.13-1.39.13-2.12.73-2.76,1.25-.36.29-.7.57-1.14.76-.47.21-1.14.23-1.79.26-1.05.04-2.24.09-2.39,1.14-.06-.04-.11-.08-.16-.12-.31-.22-.7-.5-1.18-.64-.09-.03-.2-.05-.3-.05-.92-.04-2.23.8-3.11,1.66-.49.48-1.32,1.42-1.3,2.31,0,.19.01.38.02.57.07,1.19.11,2.06-1.48,2.96-1.62.93-2.76,2.44-3.68,3.66-.33.44-.62.82-.88,1.1-.08.09-.15.14-.21.13-.03,0-.08-.01-.15-.05,0,0,0,0,0,0-.52-.28-1.22-1.45-1.96-2.7l-.33-.56c-1.07-1.78-2.8-2.27-4.32-2.7-.61-.17-1.18-.34-1.64-.57-1.7-.85-3.82-.16-6.45,2.02-1.28,1.06-3.21,1-3.89.52v-6.04c0-.38-.3-.68-.68-.68s-.68.3-.68.68v5.42c-.68-.14-.52-.29-.76-.44-.31-.19-.6-.68-1.95-1.94h0c-1.36-1.64-3.18-3.93-4.07-5.35-.14-.22-.51-.29-.74-.15-.13-.22-.28-.4-.34-.53-.5-1.04.26-2.87.91-4.47l3.85,2.69c2,1.4,4.51,1.87,6.88,1.31l57.6-13.62c.63-.15,1.35-.17,1.99-.06l50.68,8.67v32.32ZM55.89,43.38c-4.09,0-7.41,3.3-7.41,7.37,0,5.83,7.41,14.46,7.41,14.46,0,0,7.41-8.66,7.41-14.46,0-4.07-3.32-7.37-7.41-7.37ZM55.89,53.94c-2.02,0-3.66-1.63-3.66-3.63s1.64-3.63,3.66-3.63,3.66,1.63,3.66,3.63-1.64,3.63-3.66,3.63Z"/>
</svg>