<svg width="30" height="34" viewBox="0 0 30 34" fill="none" xmlns="http://www.w3.org/2000/svg">
<path fill-rule="evenodd" clip-rule="evenodd" d="M13.2748 3.30388C12.9103 3.4991 12.5455 3.69449 12.2145 3.85745C12.1874 3.87077 12.1608 3.88391 12.1344 3.89688C11.3826 4.26713 10.9282 4.49086 10.5685 4.60892C10.1467 4.74736 9.83674 4.74726 9.44569 4.74714C9.43396 4.74714 9.42216 4.74713 9.41028 4.74713C9.36734 4.74713 9.34467 4.75278 9.33593 4.7557C9.33207 4.76162 9.32546 4.7741 9.31976 4.79372C9.31378 4.81435 9.31267 4.82959 9.31249 4.83201C9.31247 4.83232 9.31246 4.83242 9.31246 4.83228V4.95241L9.27394 5.06619C9.12592 5.50348 8.85928 6.16275 8.53084 6.72684C8.36796 7.00658 8.17139 7.29531 7.94448 7.52342C7.76159 7.70729 7.47166 7.94005 7.09194 7.99417C6.98893 8.19333 6.83172 8.39517 6.61281 8.61072L5.95094 9.26245L5.82167 9.38974L5.79388 9.41711L5.7875 9.42339L5.78597 9.42489L5.7856 9.42526L5.78551 9.42535L5.78549 9.42537L5.78548 9.42538L5.27363 8.90557L5.78548 9.42538L5.57251 9.63508H5.27368C5.27378 9.63508 5.27086 9.6351 5.26475 9.6355C5.25842 9.63592 5.24957 9.63669 5.23822 9.63806C5.21535 9.64083 5.18492 9.64573 5.14776 9.65386C5.07324 9.67017 4.97792 9.69811 4.86909 9.74297C4.65703 9.83038 4.4007 9.97907 4.1483 10.223C4.14182 10.2406 4.11922 10.3091 4.12093 10.4712C4.12343 10.7093 4.17834 11.0277 4.28093 11.4002C4.46834 12.0807 4.78013 12.8194 5.03249 13.3344C5.17325 13.4763 5.26247 13.6404 5.32023 13.7779C5.40531 13.9805 5.45519 14.2041 5.4863 14.419C5.54869 14.8502 5.55159 15.3654 5.52656 15.8781C5.47734 16.8864 5.31298 18.0115 5.17334 18.7624C5.15306 19.0943 5.01139 19.3764 4.86543 19.5876C4.70427 19.8208 4.49801 20.0254 4.29725 20.1954C3.89596 20.5352 3.42848 20.8104 3.11387 20.9653L2.96149 21.0403H2.79164C2.79171 21.0403 2.7917 21.0403 2.79162 21.0403C2.79099 21.0403 2.78572 21.0405 2.77672 21.0417C2.7669 21.0431 2.75546 21.0453 2.7436 21.0487C2.72166 21.0548 2.70712 21.0621 2.69955 21.0668C2.69717 21.0758 2.69382 21.0943 2.69382 21.1254C2.69382 21.4294 2.61584 21.842 2.23538 22.0917C2.21056 22.108 2.18573 22.1227 2.16108 22.1358C2.32683 22.2762 2.53851 22.4324 2.78386 22.5967C3.43818 23.0348 4.23524 23.467 4.76853 23.7296L4.8742 23.7816L4.95812 23.8642C5.01258 23.9179 5.12845 23.9914 5.24428 24.0099C5.29351 24.0178 5.33827 24.0153 5.38311 24.0012C5.42716 23.9874 5.49791 23.954 5.58912 23.8642C5.88953 23.5684 6.24072 23.3758 6.65044 23.3284C7.03934 23.2833 7.40149 23.379 7.71272 23.5016C8.02183 23.6233 8.34622 23.7992 8.66375 23.9743C8.7044 23.9967 8.74528 24.0193 8.78645 24.0421C9.07911 24.2039 9.38641 24.3738 9.73251 24.5442C10.2033 24.776 10.5697 25.0418 10.818 25.3676C11.0808 25.7128 11.174 26.0764 11.174 26.4206C11.174 26.7173 11.1024 26.9983 11.0547 27.1852C11.0525 27.194 11.0503 27.2027 11.0481 27.2112C11.0084 27.3675 10.9844 27.4702 10.9737 27.5511C11.0023 27.5668 11.0439 27.5862 11.1019 27.6068C11.3424 27.692 11.6667 27.7278 11.8923 27.7278H12.1912L12.4041 27.9375L11.8923 28.4573L12.4041 27.9375L12.4041 27.9375L12.4042 27.9376L12.4046 27.938L12.4061 27.9395L12.4125 27.9458L12.4403 27.9731L12.5696 28.1004L13.2314 28.7521C13.3676 28.8862 13.6471 28.9575 14.2561 28.8576C14.4762 28.8214 14.6921 28.7721 14.9208 28.7198C14.986 28.7049 15.0522 28.6898 15.1198 28.6746C15.3944 28.6132 15.7293 28.5424 16.0289 28.5424C16.317 28.5424 16.5496 28.6608 16.7115 28.7801C16.8732 28.8993 17.0058 29.049 17.1126 29.1921C17.3261 29.4783 17.5126 29.8424 17.6696 30.202C17.889 30.7043 18.0807 31.2679 18.2257 31.7551C18.3537 31.5886 18.4419 31.4279 18.5014 31.288C18.5464 31.1821 18.5743 31.0898 18.5904 31.0182C18.5933 31.0056 18.5957 30.9938 18.5978 30.9829C18.4578 30.5341 18.3075 29.8978 18.2592 29.2665C18.2322 28.9128 18.2348 28.5321 18.3039 28.174C18.3721 27.8208 18.5172 27.4273 18.8264 27.1228C18.9262 27.0246 19.0028 26.8242 18.9643 26.4558C18.9411 26.2343 18.8807 26.0097 18.8124 25.821C18.6438 25.7446 18.4218 25.5916 18.3081 25.3037C18.1813 24.9826 18.2611 24.6768 18.3656 24.4644C18.4692 24.2537 18.6327 24.0549 18.8264 23.8642C19.0761 23.6183 19.3216 23.4384 19.5132 23.3036C19.5505 23.2774 19.5836 23.2542 19.6133 23.2334C19.2929 22.8966 19.1191 22.4448 19.2581 21.9659C19.3868 21.5224 19.7348 21.2372 20.0502 21.0819C20.6731 20.7752 21.647 20.7456 22.3321 21.4202C22.6929 21.7755 23.1904 22.0773 23.5124 22.1408C23.5289 22.144 23.5432 22.1463 23.5556 22.148C23.5644 22.1055 23.5727 22.0392 23.5727 21.94C23.5727 21.4398 23.3549 21.2164 23.0665 20.9324L23.0558 20.9219C22.9864 20.8535 22.8917 20.7604 22.8108 20.6625C22.7251 20.5588 22.6108 20.3992 22.5521 20.1872C22.4068 19.6628 22.6878 19.2473 22.963 18.9763C23.0544 18.8863 23.0864 18.8185 23.099 18.7797C23.1117 18.7404 23.114 18.7017 23.1068 18.6578C23.0892 18.5517 23.018 18.4407 22.963 18.3866L23.5587 17.7816H19.6371L18.5291 18.8727C17.6366 19.7515 16.1267 19.1193 16.1267 17.8667V17.8593V17.8518V17.8442V17.8365V17.8288V17.821V17.8132V17.8053V17.7973V17.7893V17.7812V17.773V17.7648V17.7565V17.7482V17.7398V17.7314V17.7228V17.7143V17.7056V17.6969V17.6882V17.6794V17.6705V17.6616V17.6526V17.6435V17.6344V17.6253V17.616V17.6068V17.5974V17.588V17.5786V17.5691V17.5595V17.5499V17.5403V17.5305V17.5207V17.5109V17.501V17.4911V17.4811V17.471V17.4609V17.4508V17.4406V17.4303V17.42V17.4096V17.3992V17.3887V17.3782V17.3676V17.357V17.3463V17.3355V17.3248V17.3139V17.303V17.2921V17.2811V17.2701V17.259V17.2479V17.2367V17.2254V17.2142V17.2028V17.1915V17.18V17.1686V17.157V17.1455V17.1339V17.1222V17.1105V17.0987V17.0869V17.0751V17.0632V17.0513V17.0393V17.0273V17.0152V17.0031V16.9909V16.9787V16.9664V16.9542V16.9418V16.9294V16.917V16.9045V16.892V16.8795V16.8669V16.8543V16.8416V16.8289V16.8161V16.8033V16.7905V16.7776V16.7647V16.7517V16.7387V16.7257V16.7126V16.6995V16.6863V16.6731V16.6599V16.6466V16.6333V16.6199V16.6066V16.5931V16.5797V16.5662V16.5526V16.5391V16.5255V16.5118V16.4981V16.4844V16.4707V16.4569V16.4431V16.4292V16.4153V16.4014V16.3874V16.3735V16.3594V16.3454V16.3313V16.3172V16.303V16.2888V16.2746V16.2603V16.246V16.2317V16.2174V16.203V16.1886V16.1741V16.1597V16.1452V16.1306V16.1161V16.1015V16.0869V16.0722V16.0575V16.0428V16.0281V16.0133V15.9985V15.9837V15.9689V15.954V15.9391V15.9242V15.9092V15.8942V15.8792V15.8642V15.8491V15.8341V15.819V15.8038V15.7887V15.7735V15.7583V15.743V15.7278V15.7125V15.6972V15.6819V15.6665V15.6512V15.6358V15.6203V15.6049V15.5894V15.574V15.5585V15.5429V15.5274V15.5118V15.4962V15.4806V15.465V15.4494V15.4337V15.418V15.4023V15.3866V15.3708V15.3551V15.3393V15.3235V15.3077V15.2918V15.276V15.2601V15.2442V15.2283V15.2124V15.1965V15.1805V15.1646V15.1486V15.1326V15.1166V15.1005V15.0845V15.0684V15.0524V15.0363V15.0202V15.0041V14.9879V14.9718V14.9557V14.9395V14.9233V14.9071V14.8909V14.8747V14.8585V14.8423V14.826V14.8097V14.7935V14.7772V14.7609V14.7446V14.7283V14.712V14.6957V14.6793V14.663V14.6466V14.6303V14.6139V14.5975V14.5811V14.5647V14.5483V14.5319V14.5155V14.4991V14.4827V14.4662V14.4498V14.4333V14.4169V14.4004V14.384V14.3675V14.351V14.3345V14.3181V14.3016V14.2851V14.2686V14.2521V14.2356V14.2191V14.2026V14.1861V14.1696V14.1531V14.1366V14.1201V14.1036V14.087V14.0705V14.054V14.0375V14.021V14.0045V13.9879V13.9714V13.9549V13.9384V13.9219V13.9054V13.8889V13.8724V13.8559V13.8394V13.8229V13.8064V13.7899V13.7734V13.7569V13.7404V13.7239V13.7075V13.691V13.6745V13.6581V13.6416V13.6251V13.6087V13.5923V13.5758V13.5594V13.543V13.5266V13.5102V13.4938V13.4774V13.461V13.4446V13.4282V13.4119V13.3955V13.3792V13.3628V13.3465V13.3302V13.3139V13.2976V13.2813V13.265V13.2487V13.2325V13.2162V13.2V13.1838V13.1676V13.1514V13.1352V13.119V13.1028V13.0867V13.0706V13.0544V13.0383V13.0222V13.0061V12.9901V12.974V12.958V12.9419V12.9259V12.9099V12.894V12.878V12.862V12.8461V12.8302V12.8143V12.7984V12.7825V12.7667V12.7509V12.735V12.7192V12.7035V12.6877V12.672V12.6562V12.6405V12.6249V12.6092V12.5935V12.5779V12.5623V12.5467V12.5312V12.5156V12.5001V12.4846V12.4691V12.4537V12.4382V12.4228V12.4074V12.392V12.3767V12.3614V12.3461V12.3308V12.3155V12.3003V12.2851V12.2699V12.2548V12.2396V12.2245V12.2094V12.1944V12.1794V12.1644V12.1494V12.1344V12.1195V12.1046V12.0897V12.079H16.1246H16.1211H16.1176H16.114H16.1105H16.1069H16.1034H16.0998H16.0962H16.0927H16.0891H16.0855H16.0819H16.0784H16.0748H16.0712H16.0676H16.064H16.0604H16.0568H16.0532H16.0496H16.0459H16.0423H16.0387H16.0351H16.0314H16.0278H16.0242H16.0205H16.0169H16.0132H16.0096H16.0059H16.0023H15.9986H15.9949H15.9913H15.9876H15.9839H15.9802H15.9766H15.9729H15.9692H15.9655H15.9618H15.9581H15.9544H15.9507H15.947H15.9433H15.9396H15.9359H15.9321H15.9284H15.9247H15.921H15.9172H15.9135H15.9098H15.906H15.9023H15.8985H15.8948H15.891H15.8873H15.8835H15.8798H15.876H15.8722H15.8685H15.8647H15.8609H15.8572H15.8534H15.8496H15.8458H15.8421H15.8383H15.8345H15.8307H15.8269H15.8231H15.8193H15.8155H15.8117H15.8079H15.8041H15.8003H15.7965H15.7927H15.7888H15.785H15.7812H15.7774H15.7736H15.7697H15.7659H15.7621H15.7583H15.7544H15.7506H15.7468H15.7429H15.7391H15.7352H15.7314H15.7275H15.7237H15.7198H15.716H15.7121H15.7083H15.7044H15.7006H15.6967H15.6929H15.689H15.6851H15.6813H15.6774H15.6735H15.6697H15.6658H15.6619H15.658H15.6542H15.6503H15.6464H15.6425H15.6387H15.6348H15.6309H15.627H15.6231H15.6192H15.6154H15.6115H15.6076H15.6037H15.5998H15.5959H15.592H15.5881H15.5842H15.5803H15.5764H15.5725H15.5686H15.5647H15.5608H15.5569H15.553H15.5491H15.5452H15.5413H15.5374H15.5335H15.5296H15.5257H15.5218H15.5179H15.514H15.5101H15.5062H15.5023H15.4984H15.4944H15.4905H15.4866H15.4827H15.4788H15.4749H15.471H15.4671H15.4631H15.4592H15.4553H15.4514H15.4475H15.4436H15.4397H15.4358H15.4318H15.4279H15.424H15.4201H15.4162H15.4123H15.4084H15.4044H15.4005H15.3966H15.3927H15.3888H15.3849H15.381H15.377H15.3731H15.3692H15.3653H15.3614H15.3575H15.3536H15.3497H15.3458H15.3419H15.3379H15.334H15.3301H15.3262H15.3223H15.3184H15.3145H15.3106H15.3067H15.3028H15.2989H15.295H15.2911H15.2872H15.2833H15.2794H15.2755H15.2716H15.2677H15.2638H15.2599H15.256H15.2521H15.2482H15.2443H15.2404H15.2365H15.2327H15.2288H15.2249H15.221H15.2171H15.2132H15.2094H15.2055H15.2016C14.3766 12.079 13.9999 11.3864 13.8546 10.989C13.6915 10.5429 13.6448 10.0437 13.6448 9.72016L13.6448 9.72031C13.6447 9.72031 13.6446 9.71014 13.642 9.68935C13.6393 9.66793 13.6345 9.63897 13.6265 9.60327C13.6103 9.53166 13.5824 9.43934 13.5374 9.33348C13.4478 9.12262 13.293 8.8646 13.0351 8.61066C12.9079 8.48543 12.8296 8.43268 12.7954 8.41288C12.778 8.41259 12.7545 8.41182 12.7304 8.40989C12.6833 8.4061 12.5838 8.39493 12.4708 8.34547C12.1697 8.21371 12.0614 7.95371 12.0255 7.81212C11.9968 7.69941 11.9935 7.58706 11.992 7.53225C11.9901 7.46452 11.9901 7.37937 11.9901 7.28592V7.27619C11.9901 6.88649 12.1661 6.44876 12.3585 6.08344C12.567 5.68756 12.858 5.25932 13.2035 4.8624C13.8583 4.11021 14.8716 3.28805 16.0289 3.28805C16.3236 3.28805 16.4687 3.21649 16.5338 3.16748C16.595 3.12137 16.638 3.05662 16.6584 2.95589C16.706 2.72178 16.608 2.35671 16.3498 2.09877C16.3317 2.09042 16.257 2.06643 16.0625 2.09286C15.7887 2.13004 15.4229 2.25047 14.977 2.44563C14.5392 2.6372 14.0692 2.88032 13.5924 3.13411C13.4871 3.19015 13.3809 3.24701 13.2748 3.30388ZM16.3544 2.10138C16.3543 2.10145 16.3533 2.10093 16.3515 2.09959C16.3535 2.10065 16.3545 2.10131 16.3544 2.10138ZM16.1267 10.62V10.616V10.6066V10.5972V10.5879V10.5787V10.5695V10.5603V10.5512V10.5422V10.5332V10.5242V10.5153V10.5064V10.4976V10.4888V10.4801V10.4714V10.4628V10.4542V10.4457V10.4372V10.4287V10.4203V10.4119V10.4036V10.3954V10.3871V10.379V10.3708V10.3628V10.3547V10.3467V10.3388V10.3309V10.323V10.3152V10.3074V10.2997V10.292V10.2843V10.2767V10.2692V10.2616V10.2542V10.2467V10.2393V10.232V10.2247V10.2174V10.2102V10.203V10.1959V10.1888V10.1817V10.1747V10.1677V10.1608V10.1539V10.1471V10.1402V10.1335V10.1267V10.12V10.1134V10.1068V10.1002V10.0937V10.0872V10.0807V10.0743V10.0679V10.0616V10.0553V10.049V10.0428V10.0366V10.0305V10.0244V10.0183V10.0122V10.0062V10.0003V9.99435V9.98846V9.98261V9.97679V9.97101V9.96527V9.95956V9.95389V9.94825V9.94265V9.93708V9.93155V9.92606V9.9206V9.91517V9.90978V9.90442V9.8991V9.89381V9.88856V9.88334V9.87815V9.873V9.86788V9.86279V9.85774V9.85272V9.84773V9.84278V9.83785V9.83297V9.82811V9.82328V9.81849V9.81373V9.809V9.8043V9.79963V9.795V9.79039V9.78582V9.78127V9.77676V9.77228V9.76783V9.76341V9.75901V9.75465V9.75032V9.74602V9.74174V9.7375V9.73329V9.7291V9.72494V9.72081V9.71671V9.71264V9.7086V9.70458V9.70059V9.69663V9.6927V9.6888V9.68492V9.68107V9.67725V9.67345V9.66968V9.66594V9.66222V9.65853V9.65487V9.65123V9.64761V9.64403V9.64047V9.63693V9.63342V9.62993V9.62647V9.62304V9.61962V9.61624V9.61287V9.60954V9.60622V9.60293V9.59966V9.59642V9.5932V9.59V9.58683V9.58368V9.58055V9.57744V9.57436V9.5713V9.56826V9.56525V9.56225V9.55928V9.55633V9.5534V9.55049V9.5476V9.54474V9.54189V9.53907V9.53627V9.53348V9.53072V9.52798V9.52525V9.52255V9.51987V9.5172V9.51456V9.51193V9.50933V9.50674V9.50417V9.50162V9.49909V9.49658V9.49408V9.49161V9.48915V9.48671V9.48428V9.48188V9.47949V9.47712V9.47476V9.47242V9.4701V9.4678V9.46551V9.46324V9.46098V9.45874V9.45652V9.45431V9.45211V9.44994V9.44777V9.44563V9.44349V9.44138V9.43927V9.43718V9.43511V9.43305V9.431V9.42897V9.42695V9.42494V9.42295V9.42097V9.41901V9.41706V9.41512V9.41319V9.41127V9.40937V9.40748V9.4056V9.40374V9.40188V9.40004V9.39821V9.39639V9.39458V9.39278V9.39099V9.38922V9.38745V9.38569V9.38395V9.38221V9.38049V9.37877V9.37707V9.37537V9.37368V9.37201V9.37034V9.36868V9.36703V9.36539V9.36375V9.36213V9.36051V9.3589V9.3573V9.3557V9.35412V9.35254V9.35097V9.3494V9.34784V9.34629V9.34475V9.34321V9.34168V9.34016V9.33864V9.33712V9.33562V9.33412V9.33262V9.33113V9.32964V9.32816V9.32669V9.32522V9.32375V9.32229V9.32083V9.31938V9.31793V9.31648V9.31504V9.3136V9.31216V9.31073V9.3093V9.30788V9.30645V9.30503V9.30362V9.3022V9.30079V9.29937V9.29797V9.29656V9.29515V9.29375V9.29234V9.29094V9.28954V9.28814V9.28674V9.28534V9.28394V9.28254V9.28114V9.27974V9.27834V9.27694V9.27554V9.27414V9.27274V9.27134V9.26994V9.26853V9.26713V9.26572V9.26431V9.2629V9.26148V9.26007V9.25865V9.25723V9.25581V9.25438V9.25295V9.25152V9.25009V9.24865V9.24721V9.24576V9.24431V9.24286V9.2414V9.23994V9.23848V9.23701V9.23553V9.23405V9.23257V9.23108V9.22958V9.22808V9.22657V9.22506V9.22354V9.22202V9.22049V9.21895V9.21741V9.21586V9.2143V9.21274V9.21117V9.20959V9.20801V9.20641V9.20481V9.20321V9.20159V9.19997V9.19833V9.19669V9.19504V9.19338V9.19172V9.19004V9.18836V9.18666V9.18496V9.18324V9.18152V9.17978V9.17804V9.17629V9.17452V9.17275V9.17096V9.16917V9.16736V9.16554V9.16371V9.16187V9.16002V9.15815V9.15628V9.15439V9.15249V9.15057V9.14865V9.14671V9.14476V9.1428V9.14082V9.13883V9.13683V9.13481V9.13278V9.13073V9.12868V9.1266V9.12452V9.12242V9.1203V9.11817V9.11602V9.11386V9.11169V9.1095V9.10729V9.10507V9.10283V9.10058V9.09831V9.09602V9.09372V9.0914V9.08907V9.08672V9.08435V9.08196V9.07956V9.07714V9.0747V9.07224V9.06977V9.06727V9.06476V9.06224V9.05969V9.05712V9.05454V9.05194V9.04931V9.04667V9.04401V9.04133V9.03863V9.03591V9.03317V9.03041V9.02763V9.02483V9.02201V9.01917V9.01631V9.01342V9.01052V9.00759V9.00464V9.00168V8.99868V8.99567V8.99264V8.98958V8.9865V8.9834V8.98027V8.97713V8.97396V8.97076V8.96755V8.96431V8.96104V8.95776V8.95445V8.95111V8.94775V8.94437V8.94096V8.93753V8.93407V8.93059V8.92708V8.92355V8.91999V8.91641V8.9128V8.90917V8.90551C16.1267 7.86441 16.8169 7.25366 17.4753 6.9425C18.1192 6.63816 18.8548 6.54668 19.3382 6.54668H19.3512H19.3642H19.3773H19.3904H19.4036H19.4168H19.4301H19.4435H19.4569H19.4704H19.4839H19.4975H19.5111H19.5248H19.5385H19.5523H19.5662H19.5801H19.594H19.608H19.6221H19.6362H19.6504H19.6646H19.6789H19.6932H19.7076H19.722H19.7365H19.751H19.7656H19.7802H19.7949H19.8096H19.8244H19.8392H19.854H19.869H19.8839H19.8989H19.914H19.9291H19.9443H19.9595H19.9747H19.99H20.0053H20.0207H20.0362H20.0516H20.0672H20.0827H20.0983H20.114H20.1297H20.1454H20.1612H20.177H20.1929H20.2088H20.2248H20.2408H20.2568H20.2729H20.289H20.3051H20.3213H20.3376H20.3539H20.3702H20.3865H20.4029H20.4194H20.4359H20.4524H20.4689H20.4855H20.5021H20.5188H20.5355H20.5522H20.569H20.5858H20.6027H20.6196H20.6365H20.6534H20.6704H20.6875H20.7045H20.7216H20.7387H20.7559H20.7731H20.7903H20.8076H20.8249H20.8422H20.8595H20.8769H20.8943H20.9118H20.9293H20.9468H20.9643H20.9819H20.9995H21.0171H21.0348H21.0525H21.0702H21.0879H21.1057H21.1235H21.1413H21.1592H21.1771H21.195H21.2129H21.2309H21.2489H21.2669H21.285H21.303H21.3211H21.3392H21.3574H21.3755H21.3937H21.4119H21.4302H21.4484H21.4667H21.485H21.5034H21.5217H21.5401H21.5585H21.5769H21.5953H21.6138H21.6323H21.6508H21.6693H21.6878H21.7064H21.725H21.7436H21.7622H21.7808H21.7995H21.8181H21.8368H21.8555H21.8742H21.893H21.9117H21.9305H21.9493H21.9681H21.9869H22.0057H22.0246H22.0434H22.0623H22.0812H22.1001H22.119H22.138H22.1569H22.1759H22.1948H22.2138H22.2328H22.2518H22.2708H22.2899H22.3089H22.328H22.347H22.3661H22.3852H22.4043H22.4234H22.4425H22.4616H22.4807H22.4998H22.519H22.5381H22.5573H22.5765H22.5956H22.6148H22.634H22.6532H22.6724H22.6916H22.7108H22.73H22.7492H22.7685H22.7877H22.8069H22.8261H22.8454H22.8646H22.8839H22.9031H22.9224H22.9416H22.9609H22.9801H22.9994H23.0186H23.0379H23.0571H23.0764H23.0957H23.1149H23.1342H23.1534H23.1727H23.192H23.2112H23.2305H23.2497H23.269H23.2882H23.3074H23.3267H23.3459H23.3651H23.3844H23.4036H23.4228H23.442H23.4612H23.4804H23.4996H23.5188H23.538H23.5572H23.5764H23.5955H23.6147H23.6338H23.653H23.6721H23.6912H23.7104H23.7295H23.7486H23.7677H23.7868H23.8058H23.8249H23.8439H23.863H23.882H23.901H23.92H23.939H23.958H23.977H23.996H24.0149H24.0338H24.0528H24.0717H24.0906H24.1094H24.1283H24.1471H24.166H24.1848H24.2036H24.2224H24.2412H24.2599H24.2787H24.2974H24.3161H24.3348H24.3535H24.3721H24.3907H24.4094H24.428H24.4465H24.4651H24.4836H24.5022H24.5207H24.5391H24.5576H24.576H24.5945H24.6129H24.6312H24.6496H24.6679H24.6862H24.7045H24.7228H24.741H24.7592H24.7774H24.7956H24.8138H24.8319H24.85H24.868H24.8861H24.9041H24.9221H24.9401H24.958H24.9759H24.9938H25.0117H25.0295H25.0473H25.0651H25.0829H25.1006H25.1183H25.1359H25.1536H25.1712H25.1888H25.2063H25.2238H25.2413H25.2588H25.2762H25.2936H25.3109H25.3283H25.3456H25.3628H25.38H25.3972H25.4144H25.4315H25.4486H25.4657H25.4827H25.4997H25.5167H25.5336H25.5505H25.5673H25.5842H25.6009H25.6177H25.6344H25.6511H25.6677H25.6843H25.7009H25.7174H25.7339H25.7503H25.7667H25.7831H25.7994H25.8157H25.8319H25.8481H25.8643H25.8804H25.8965H25.9125H25.9285H25.9445H25.9604H25.9763H25.9921H26.0079H26.0237H26.0394H26.055H26.0706H26.0862H26.1017H26.1172H26.1327H26.1481H26.1634H26.1787H26.194H26.2092H26.2243H26.2394H26.2545H26.2695H26.2845H26.2994H26.3143H26.3291H26.3439H26.3586H26.3733H26.3879H26.4025H26.4171H26.4315H26.446H26.4604H26.4747H26.489H26.5032H26.5174H26.5315H26.5455H26.5596H26.5735H26.5874H26.6013H26.6151H26.6288H26.6425H26.6562H26.6698H26.6833H26.6968H26.7102H26.7236H26.7369H26.7501H26.7633H26.7764H26.7895H26.8025H26.8155H26.8284H26.8413H26.8541H26.8668H26.8795H26.8921H26.9046H26.9171H26.9295H26.9419H26.9542H26.9665H26.9787H26.9908H27.0029H27.0149H27.0268H27.0387H27.0505H27.0623H27.074H27.0856H27.0971H27.1086H27.1201H27.1314H27.1427H27.154H27.1652H27.1763H27.1873H27.1983H27.2092H27.22H27.2308H27.2415H27.2522H27.2627H27.2732H27.2837H27.294H27.3043H27.3146H27.3247H27.3348H27.3448H27.3548H27.3647H27.3745H27.3842H27.3939H27.4035H27.413H27.4224H27.4318H27.4411H27.4504H27.4595H27.4686H27.4776H27.4865H27.4954H27.5042H27.5129H27.5215H27.5301H27.5386H27.547H27.5553H27.5636H27.5718H27.5799H27.5879H27.5959H27.6037H27.6115C28.5065 6.54668 29.1388 6.92953 29.5242 7.45659C29.8828 7.94709 29.9957 8.51492 29.9957 8.90551V16.2374C29.9957 17.0699 29.2796 17.4384 28.8894 17.5767C28.4405 17.7359 27.9375 17.7816 27.6115 17.7816H24.3173C24.4208 17.9638 24.5065 18.1791 24.5463 18.4199C24.6263 18.904 24.5087 19.4333 24.097 19.8995L24.0979 19.9004C24.4316 20.2289 25.0317 20.8197 25.0317 21.94C25.0317 22.449 24.9038 22.9641 24.4977 23.3024C24.0905 23.6417 23.5952 23.6441 23.2305 23.5723C22.5184 23.4321 21.7749 22.9192 21.3084 22.4598C21.2368 22.3893 21.1417 22.3466 21.0248 22.3351C20.9438 22.3271 20.8634 22.3357 20.7937 22.3543C20.9774 22.5522 21.1566 22.798 21.2166 23.0932C21.3114 23.5602 21.0777 23.8986 20.8843 24.0892C20.7492 24.2222 20.5619 24.3518 20.4228 24.4481C20.3976 24.4656 20.374 24.4819 20.3526 24.497C20.2188 24.5911 20.0864 24.6887 19.9563 24.8045L19.9887 24.8684C20.1574 25.2006 20.3559 25.7349 20.4154 26.3041C20.4734 26.859 20.4122 27.609 19.8501 28.1625C19.8284 28.1839 19.7735 28.2588 19.7365 28.4504C19.7005 28.6371 19.6928 28.8775 19.714 29.1553C19.7565 29.7113 19.9055 30.302 20.0292 30.6674L20.0678 30.7812V30.9013C20.0678 31.3739 19.8198 32.2656 19.0228 33.0504C18.8287 33.2415 18.6277 33.4015 18.4163 33.5022C18.2036 33.6037 17.9033 33.6788 17.5882 33.5581C17.2733 33.4375 17.1154 33.1873 17.0439 33.0113C16.991 32.881 16.9671 32.7514 16.9583 32.6394C16.8235 32.1219 16.5956 31.3885 16.3325 30.7859C16.1931 30.4666 16.0589 30.2197 15.9432 30.0646C15.9275 30.0436 15.9132 30.0257 15.9005 30.0107C15.7899 30.0243 15.6406 30.0532 15.4385 30.0984C15.3854 30.1103 15.3291 30.1232 15.2702 30.1367C15.0363 30.1903 14.7621 30.2531 14.4924 30.2973C13.8604 30.401 12.8989 30.4724 12.2078 29.7918L11.5809 29.1745C11.288 29.1522 10.9372 29.0964 10.6144 28.982C10.2242 28.8436 9.5081 28.4751 9.5081 27.6426C9.5081 27.346 9.5797 27.065 9.62733 26.8781C9.6296 26.8692 9.63181 26.8606 9.63395 26.8521C9.69009 26.631 9.71493 26.5172 9.71493 26.4206C9.71493 26.3575 9.70464 26.3139 9.65727 26.2517C9.59523 26.1702 9.44462 26.0287 9.08805 25.8532C8.70862 25.6663 8.36991 25.479 8.07869 25.318C8.03793 25.2954 7.9981 25.2734 7.95922 25.252C7.6304 25.0706 7.38599 24.941 7.17803 24.8591C6.97217 24.778 6.86895 24.7718 6.81834 24.7777C6.78854 24.7812 6.72606 24.7923 6.61281 24.9038C6.11295 25.396 5.5339 25.534 5.01342 25.4506C4.6002 25.3844 4.25943 25.1862 4.03179 24.9928C3.46437 24.7091 2.65853 24.2686 1.97209 23.809C1.61245 23.5682 1.26092 23.3059 0.991136 23.0443C0.856585 22.9139 0.723427 22.7655 0.619555 22.6033C0.521141 22.4496 0.407471 22.2193 0.407471 21.9401C0.407471 21.6361 0.485452 21.2236 0.865914 20.9738C1.00956 20.8795 1.15344 20.8402 1.26075 20.8223C1.33461 20.4048 1.55963 20.0863 1.85264 19.8786C2.0962 19.7059 2.36341 19.6245 2.58835 19.595C2.81673 19.4723 3.1111 19.288 3.35436 19.082C3.49832 18.9601 3.6023 18.849 3.66522 18.758C3.70089 18.7064 3.71311 18.6763 3.71679 18.6659V18.6132L3.72947 18.5461C3.86352 17.8364 4.02317 16.7513 4.06927 15.807C4.09251 15.331 4.08506 14.9234 4.04232 14.628C4.02393 14.5009 4.00192 14.4163 3.98379 14.3656L3.88904 14.3073L3.79584 14.1238C3.50584 13.5527 3.11184 12.6502 2.87428 11.7876C2.75625 11.3591 2.66637 10.9036 2.66199 10.4866C2.65788 10.0964 2.72672 9.575 3.10713 9.20042C3.74376 8.57354 4.44647 8.29444 4.94273 8.20759L5.58912 7.57111C5.71007 7.45201 5.76388 7.37693 5.78544 7.34221C5.78584 7.32568 5.78668 7.30515 5.78842 7.2842C5.79243 7.23582 5.80427 7.13409 5.85617 7.0191C5.99264 6.71676 6.25709 6.61382 6.39196 6.58062C6.5027 6.55336 6.6135 6.55013 6.6692 6.54861C6.72134 6.54718 6.78384 6.54685 6.85285 6.54677C6.8667 6.53565 6.88575 6.51892 6.91007 6.49447C7.01237 6.39163 7.13639 6.22212 7.26997 5.9927C7.514 5.57359 7.72847 5.06213 7.86052 4.68911C7.88351 4.45121 7.96608 4.15711 8.15954 3.89253C8.42083 3.53519 8.8463 3.28811 9.41028 3.28811C9.82965 3.28811 9.92746 3.28373 10.1135 3.22266C10.3617 3.14119 10.7154 2.96925 11.57 2.54848C11.8764 2.39764 12.2104 2.21876 12.5702 2.02609C12.68 1.96727 12.7923 1.90716 12.9068 1.84617C13.3866 1.5908 13.899 1.32475 14.392 1.109C14.8769 0.896824 15.3901 0.71176 15.8661 0.647109C16.3302 0.584074 16.9235 0.616044 17.3681 1.05384C17.9332 1.61028 18.2472 2.46374 18.0882 3.24631C18.0053 3.65472 17.7897 4.0482 17.4114 4.33304C17.037 4.61497 16.5615 4.74707 16.0289 4.74707C15.5316 4.74707 14.8902 5.14689 14.304 5.82035C14.029 6.13626 13.803 6.47176 13.6495 6.76325C13.5742 6.90615 13.521 7.02987 13.4876 7.12834C13.6709 7.22848 13.8586 7.3739 14.0588 7.57104C14.8558 8.35586 15.1038 9.24751 15.1038 9.72016C15.1038 9.93977 15.1398 10.2552 15.2249 10.488C15.2477 10.5503 15.269 10.5927 15.2851 10.62H15.2872H15.2911H15.295H15.2989H15.3028H15.3067H15.3106H15.3145H15.3184H15.3223H15.3262H15.3301H15.334H15.3379H15.3419H15.3458H15.3497H15.3536H15.3575H15.3614H15.3653H15.3692H15.3731H15.377H15.381H15.3849H15.3888H15.3927H15.3966H15.4005H15.4044H15.4084H15.4123H15.4162H15.4201H15.424H15.4279H15.4318H15.4358H15.4397H15.4436H15.4475H15.4514H15.4553H15.4592H15.4631H15.4671H15.471H15.4749H15.4788H15.4827H15.4866H15.4905H15.4944H15.4984H15.5023H15.5062H15.5101H15.514H15.5179H15.5218H15.5257H15.5296H15.5335H15.5374H15.5413H15.5452H15.5491H15.553H15.5569H15.5608H15.5647H15.5686H15.5725H15.5764H15.5803H15.5842H15.5881H15.592H15.5959H15.5998H15.6037H15.6076H15.6115H15.6154H15.6192H15.6231H15.627H15.6309H15.6348H15.6387H15.6425H15.6464H15.6503H15.6542H15.658H15.6619H15.6658H15.6697H15.6735H15.6774H15.6813H15.6851H15.689H15.6929H15.6967H15.7006H15.7044H15.7083H15.7121H15.716H15.7198H15.7237H15.7275H15.7314H15.7352H15.7391H15.7429H15.7468H15.7506H15.7544H15.7583H15.7621H15.7659H15.7697H15.7736H15.7774H15.7812H15.785H15.7888H15.7927H15.7965H15.8003H15.8041H15.8079H15.8117H15.8155H15.8193H15.8231H15.8269H15.8307H15.8345H15.8383H15.8421H15.8458H15.8496H15.8534H15.8572H15.8609H15.8647H15.8685H15.8722H15.876H15.8798H15.8835H15.8873H15.891H15.8948H15.8985H15.9023H15.906H15.9098H15.9135H15.9172H15.921H15.9247H15.9284H15.9321H15.9359H15.9396H15.9433H15.947H15.9507H15.9544H15.9581H15.9618H15.9655H15.9692H15.9729H15.9766H15.9802H15.9839H15.9876H15.9913H15.9949H15.9986H16.0023H16.0059H16.0096H16.0132H16.0169H16.0205H16.0242H16.0278H16.0314H16.0351H16.0387H16.0423H16.0459H16.0496H16.0532H16.0568H16.0604H16.064H16.0676H16.0712H16.0748H16.0784H16.0819H16.0855H16.0891H16.0927H16.0962H16.0998H16.1034H16.1069H16.1105H16.114H16.1176H16.1211H16.1246H16.1267ZM13.4519 7.52167C13.4519 7.52176 13.4518 7.52076 13.4516 7.51856ZM6.82494 6.56638C6.82494 6.56631 6.82597 6.56569 6.82804 6.56471C6.82596 6.56595 6.82493 6.56644 6.82494 6.56638ZM3.96537 14.3228C3.96541 14.3227 3.96629 14.3241 3.96788 14.3272C3.96613 14.3244 3.96533 14.3229 3.96537 14.3228ZM20.6307 22.4324C20.6306 22.4324 20.6314 22.4314 20.6332 22.4296C20.6317 22.4316 20.6307 22.4325 20.6307 22.4324ZM23.9245 19.7188C23.9245 19.7188 23.9251 19.7196 23.9262 19.7213C23.9249 19.7196 23.9244 19.7187 23.9245 19.7188ZM23.5348 22.2129C23.5348 22.2129 23.5353 22.2118 23.5367 22.2098C23.5355 22.212 23.5349 22.213 23.5348 22.2129ZM23.617 22.151C23.6202 22.1501 23.622 22.1499 23.6221 22.15C23.6222 22.1502 23.6206 22.1506 23.617 22.151ZM19.8096 23.4528C19.8096 23.4529 19.8092 23.4523 19.8086 23.4512ZM19.8618 23.0483C19.8629 23.0471 19.8634 23.0466 19.8634 23.0466C19.8634 23.0466 19.8629 23.0472 19.8618 23.0483ZM1.83991 21.802C1.84002 21.802 1.84104 21.8038 1.84261 21.8073C1.84058 21.8037 1.83979 21.802 1.83991 21.802ZM2.70187 21.0599C2.70189 21.0599 2.70171 21.0603 2.70129 21.0612ZM6.67688 8.00857C6.67685 8.00856 6.67759 8.00849 6.67918 8.00837ZM18.0987 8.2616C17.7229 8.43924 17.5858 8.64315 17.5858 8.90551V8.90917V8.9128V8.91641V8.91999V8.92355V8.92708V8.93059V8.93407V8.93753V8.94096V8.94437V8.94775V8.95111V8.95445V8.95776V8.96104V8.96431V8.96755V8.97076V8.97396V8.97713V8.98027V8.9834V8.9865V8.98958V8.99264V8.99567V8.99868V9.00168V9.00464V9.00759V9.01052V9.01342V9.01631V9.01917V9.02201V9.02483V9.02763V9.03041V9.03317V9.03591V9.03863V9.04133V9.04401V9.04667V9.04931V9.05194V9.05454V9.05712V9.05969V9.06224V9.06476V9.06727V9.06977V9.07224V9.0747V9.07714V9.07956V9.08196V9.08435V9.08672V9.08907V9.0914V9.09372V9.09602V9.09831V9.10058V9.10283V9.10507V9.10729V9.1095V9.11169V9.11386V9.11602V9.11817V9.1203V9.12242V9.12452V9.1266V9.12868V9.13073V9.13278V9.13481V9.13683V9.13883V9.14082V9.1428V9.14476V9.14671V9.14865V9.15057V9.15249V9.15439V9.15628V9.15815V9.16002V9.16187V9.16371V9.16554V9.16736V9.16917V9.17096V9.17275V9.17452V9.17629V9.17804V9.17978V9.18152V9.18324V9.18496V9.18666V9.18836V9.19004V9.19172V9.19338V9.19504V9.19669V9.19833V9.19997V9.20159V9.20321V9.20481V9.20641V9.20801V9.20959V9.21117V9.21274V9.2143V9.21586V9.21741V9.21895V9.22049V9.22202V9.22354V9.22506V9.22657V9.22808V9.22958V9.23108V9.23257V9.23405V9.23553V9.23701V9.23848V9.23994V9.2414V9.24286V9.24431V9.24576V9.24721V9.24865V9.25009V9.25152V9.25295V9.25438V9.25581V9.25723V9.25865V9.26007V9.26148V9.2629V9.26431V9.26572V9.26713V9.26853V9.26994V9.27134V9.27274V9.27414V9.27554V9.27694V9.27834V9.27974V9.28114V9.28254V9.28394V9.28534V9.28674V9.28814V9.28954V9.29094V9.29234V9.29375V9.29515V9.29656V9.29797V9.29937V9.30079V9.3022V9.30362V9.30503V9.30645V9.30788V9.3093V9.31073V9.31216V9.3136V9.31504V9.31648V9.31793V9.31938V9.32083V9.32229V9.32375V9.32522V9.32669V9.32816V9.32964V9.33113V9.33262V9.33412V9.33562V9.33712V9.33864V9.34016V9.34168V9.34321V9.34475V9.34629V9.34784V9.3494V9.35097V9.35254V9.35412V9.3557V9.3573V9.3589V9.36051V9.36213V9.36375V9.36539V9.36703V9.36868V9.37034V9.37201V9.37368V9.37537V9.37707V9.37877V9.38049V9.38221V9.38395V9.38569V9.38745V9.38922V9.39099V9.39278V9.39458V9.39639V9.39821V9.40004V9.40188V9.40374V9.4056V9.40748V9.40937V9.41127V9.41319V9.41512V9.41706V9.41901V9.42097V9.42295V9.42494V9.42695V9.42897V9.431V9.43305V9.43511V9.43718V9.43927V9.44138V9.44349V9.44563V9.44777V9.44994V9.45211V9.45431V9.45652V9.45874V9.46098V9.46324V9.46551V9.4678V9.4701V9.47242V9.47476V9.47712V9.47949V9.48188V9.48428V9.48671V9.48915V9.49161V9.49408V9.49658V9.49909V9.50162V9.50417V9.50674V9.50933V9.51193V9.51456V9.5172V9.51987V9.52255V9.52525V9.52798V9.53072V9.53348V9.53627V9.53907V9.54189V9.54474V9.5476V9.55049V9.5534V9.55633V9.55928V9.56225V9.56525V9.56826V9.5713V9.57436V9.57744V9.58055V9.58368V9.58683V9.59V9.5932V9.59642V9.59966V9.60293V9.60622V9.60954V9.61287V9.61624V9.61962V9.62304V9.62647V9.62993V9.63342V9.63693V9.64047V9.64403V9.64761V9.65123V9.65487V9.65853V9.66222V9.66594V9.66968V9.67345V9.67725V9.68107V9.68492V9.6888V9.6927V9.69663V9.70059V9.70458V9.7086V9.71264V9.71671V9.72081V9.72494V9.7291V9.73329V9.7375V9.74174V9.74602V9.75032V9.75465V9.75901V9.76341V9.76783V9.77228V9.77676V9.78127V9.78582V9.79039V9.795V9.79963V9.8043V9.809V9.81373V9.81849V9.82328V9.82811V9.83297V9.83785V9.84278V9.84773V9.85272V9.85774V9.86279V9.86788V9.873V9.87815V9.88334V9.88856V9.89381V9.8991V9.90442V9.90978V9.91517V9.9206V9.92606V9.93155V9.93708V9.94265V9.94825V9.95389V9.95956V9.96527V9.97101V9.97679V9.98261V9.98846V9.99435V10.0003V10.0062V10.0122V10.0183V10.0244V10.0305V10.0366V10.0428V10.049V10.0553V10.0616V10.0679V10.0743V10.0807V10.0872V10.0937V10.1002V10.1068V10.1134V10.12V10.1267V10.1335V10.1402V10.1471V10.1539V10.1608V10.1677V10.1747V10.1817V10.1888V10.1959V10.203V10.2102V10.2174V10.2247V10.232V10.2393V10.2467V10.2542V10.2616V10.2692V10.2767V10.2843V10.292V10.2997V10.3074V10.3152V10.323V10.3309V10.3388V10.3467V10.3547V10.3628V10.3708V10.379V10.3871V10.3954V10.4036V10.4119V10.4203V10.4287V10.4372V10.4457V10.4542V10.4628V10.4714V10.4801V10.4888V10.4976V10.5064V10.5153V10.5242V10.5332V10.5422V10.5512V10.5603V10.5695V10.5787V10.5879V10.5972V10.6066V10.616V10.6254V10.6349V10.6445V10.6541V10.6637V10.6734V10.6832V10.6929V10.7028V10.7127V10.7234V10.7342V10.745V10.7559V10.7668V10.7778V10.7889V10.7999V10.8111V10.8222V10.8335V10.8447V10.8561V10.8674V10.8789V10.8903V10.9018V10.9134V10.925V10.9367V10.9484V10.9601V10.9719V10.9838V10.9957V11.0076V11.0196V11.0316V11.0437V11.0558V11.0679V11.0801V11.0924V11.1047V11.117V11.1294V11.1418V11.1543V11.1668V11.1793V11.1919V11.2045V11.2172V11.2299V11.2427V11.2555V11.2683V11.2812V11.2941V11.3071V11.3201V11.3331V11.3462V11.3593V11.3724V11.3856V11.3989V11.4121V11.4254V11.4388V11.4522V11.4656V11.4791V11.4925V11.5061V11.5196V11.5333V11.5469V11.5606V11.5743V11.588V11.6018V11.6156V11.6295V11.6434V11.6573V11.6712V11.6852V11.6993V11.7133V11.7274V11.7415V11.7557V11.7699V11.7841V11.7983V11.8126V11.8269V11.8413V11.8557V11.8701V11.8845V11.899V11.9135V11.928V11.9426V11.9571V11.9718V11.9864V12.0011V12.0158V12.0305V12.0453V12.0601V12.0749V12.0897V12.1046V12.1195V12.1344V12.1494V12.1644V12.1794V12.1944V12.2094V12.2245V12.2396V12.2548V12.2699V12.2851V12.3003V12.3155V12.3308V12.3461V12.3614V12.3767V12.392V12.4074V12.4228V12.4382V12.4537V12.4691V12.4846V12.5001V12.5156V12.5312V12.5467V12.5623V12.5779V12.5935V12.6092V12.6249V12.6405V12.6562V12.672V12.6877V12.7035V12.7192V12.735V12.7509V12.7667V12.7825V12.7984V12.8143V12.8302V12.8461V12.862V12.878V12.894V12.9099V12.9259V12.9419V12.958V12.974V12.9901V13.0061V13.0222V13.0383V13.0544V13.0706V13.0867V13.1028V13.119V13.1352V13.1514V13.1676V13.1838V13.2V13.2162V13.2325V13.2487V13.265V13.2813V13.2976V13.3139V13.3302V13.3465V13.3628V13.3792V13.3955V13.4119V13.4282V13.4446V13.461V13.4774V13.4938V13.5102V13.5266V13.543V13.5594V13.5758V13.5923V13.6087V13.6251V13.6416V13.6581V13.6745V13.691V13.7075V13.7239V13.7404V13.7569V13.7734V13.7899V13.8064V13.8229V13.8394V13.8559V13.8724V13.8889V13.9054V13.9219V13.9384V13.9549V13.9714V13.9879V14.0045V14.021V14.0375V14.054V14.0705V14.087V14.1036V14.1201V14.1366V14.1531V14.1696V14.1861V14.2026V14.2191V14.2356V14.2521V14.2686V14.2851V14.3016V14.3181V14.3345V14.351V14.3675V14.384V14.4004V14.4169V14.4333V14.4498V14.4662V14.4827V14.4991V14.5155V14.5319V14.5483V14.5647V14.5811V14.5975V14.6139V14.6303V14.6466V14.663V14.6793V14.6957V14.712V14.7283V14.7446V14.7609V14.7772V14.7935V14.8097V14.826V14.8423V14.8585V14.8747V14.8909V14.9071V14.9233V14.9395V14.9557V14.9718V14.9879V15.0041V15.0202V15.0363V15.0524V15.0684V15.0845V15.1005V15.1166V15.1326V15.1486V15.1646V15.1805V15.1965V15.2124V15.2283V15.2442V15.2601V15.276V15.2918V15.3077V15.3235V15.3393V15.3551V15.3708V15.3866V15.4023V15.418V15.4337V15.4494V15.465V15.4806V15.4962V15.5118V15.5274V15.5429V15.5585V15.574V15.5894V15.6049V15.6203V15.6358V15.6512V15.6665V15.6819V15.6972V15.7125V15.7278V15.743V15.7583V15.7735V15.7887V15.8038V15.819V15.8341V15.8491V15.8642V15.8792V15.8942V15.9092V15.9242V15.9391V15.954V15.9689V15.9837V15.9985V16.0133V16.0281V16.0428V16.0575V16.0722V16.0869V16.1015V16.1161V16.1306V16.1452V16.1597V16.1741V16.1886V16.203V16.2174V16.2317V16.246V16.2603V16.2746V16.2888V16.303V16.3172V16.3313V16.3454V16.3594V16.3735V16.3874V16.4014V16.4153V16.4292V16.4431V16.4569V16.4707V16.4844V16.4981V16.5118V16.5255V16.5391V16.5526V16.5662V16.5797V16.5931V16.6066V16.6199V16.6333V16.6466V16.6599V16.6731V16.6863V16.6995V16.7126V16.7257V16.7387V16.7517V16.7647V16.7776V16.7905V16.8033V16.8161V16.8289V16.8416V16.8543V16.8669V16.8795V16.892V16.9045V16.917V16.9294V16.9418V16.9542V16.9664V16.9787V16.9909V17.0031V17.0152V17.0273V17.0393V17.0513V17.0632V17.0751V17.0869V17.0987V17.1105V17.1222V17.1339V17.1455V17.157V17.1686V17.18V17.1915V17.2028V17.2142V17.2254V17.2367V17.2479V17.259V17.2701V17.2811V17.2921V17.303V17.3139V17.3248V17.3355V17.3463V17.357V17.3676V17.3782V17.3887V17.3992V17.4096V17.42V17.4303V17.4406V17.4508V17.4609V17.471V17.4811V17.4911V17.501V17.5109V17.5207V17.5305V17.5403V17.5499V17.5595V17.5691V17.5786V17.588V17.5974V17.6068V17.616V17.6253V17.6344V17.6435V17.6526V17.6616V17.6705V17.6794V17.6882V17.6969V17.7056V17.7143V17.7228V17.7314V17.7398V17.7482V17.7539L18.8264 16.5323L19.0394 16.3226H19.3382H27.6115C27.8371 16.3226 28.1614 16.2868 28.402 16.2016C28.4645 16.1794 28.508 16.1585 28.5367 16.1423V8.90551C28.5367 8.75299 28.4841 8.50616 28.3464 8.31777C28.2354 8.16595 28.0404 8.0057 27.6115 8.0057H27.6037H27.5959H27.5879H27.5799H27.5718H27.5636H27.5553H27.547H27.5386H27.5301H27.5215H27.5129H27.5042H27.4954H27.4865H27.4776H27.4686H27.4595H27.4504H27.4411H27.4318H27.4224H27.413H27.4035H27.3939H27.3842H27.3745H27.3647H27.3548H27.3448H27.3348H27.3247H27.3146H27.3043H27.294H27.2837H27.2732H27.2627H27.2522H27.2415H27.2308H27.22H27.2092H27.1983H27.1873H27.1763H27.1652H27.154H27.1427H27.1314H27.1201H27.1086H27.0971H27.0856H27.074H27.0623H27.0505H27.0387H27.0268H27.0149H27.0029H26.9908H26.9787H26.9665H26.9542H26.9419H26.9295H26.9171H26.9046H26.8921H26.8795H26.8668H26.8541H26.8413H26.8284H26.8155H26.8025H26.7895H26.7764H26.7633H26.7501H26.7369H26.7236H26.7102H26.6968H26.6833H26.6698H26.6562H26.6425H26.6288H26.6151H26.6013H26.5874H26.5735H26.5596H26.5455H26.5315H26.5174H26.5032H26.489H26.4747H26.4604H26.446H26.4315H26.4171H26.4025H26.3879H26.3733H26.3586H26.3439H26.3291H26.3143H26.2994H26.2845H26.2695H26.2545H26.2394H26.2243H26.2092H26.194H26.1787H26.1634H26.1481H26.1327H26.1172H26.1017H26.0862H26.0706H26.055H26.0394H26.0237H26.0079H25.9921H25.9763H25.9604H25.9445H25.9285H25.9125H25.8965H25.8804H25.8643H25.8481H25.8319H25.8157H25.7994H25.7831H25.7667H25.7503H25.7339H25.7174H25.7009H25.6843H25.6677H25.6511H25.6344H25.6177H25.6009H25.5842H25.5673H25.5505H25.5336H25.5167H25.4997H25.4827H25.4657H25.4486H25.4315H25.4144H25.3972H25.38H25.3628H25.3456H25.3283H25.3109H25.2936H25.2762H25.2588H25.2413H25.2238H25.2063H25.1888H25.1712H25.1536H25.1359H25.1183H25.1006H25.0829H25.0651H25.0473H25.0295H25.0117H24.9938H24.9759H24.958H24.9401H24.9221H24.9041H24.8861H24.868H24.85H24.8319H24.8138H24.7956H24.7774H24.7592H24.741H24.7228H24.7045H24.6862H24.6679H24.6496H24.6312H24.6129H24.5945H24.576H24.5576H24.5391H24.5207H24.5022H24.4836H24.4651H24.4465H24.428H24.4094H24.3907H24.3721H24.3535H24.3348H24.3161H24.2974H24.2787H24.2599H24.2412H24.2224H24.2036H24.1848H24.166H24.1471H24.1283H24.1094H24.0906H24.0717H24.0528H24.0338H24.0149H23.996H23.977H23.958H23.939H23.92H23.901H23.882H23.863H23.8439H23.8249H23.8058H23.7868H23.7677H23.7486H23.7295H23.7104H23.6912H23.6721H23.653H23.6338H23.6147H23.5955H23.5764H23.5572H23.538H23.5188H23.4996H23.4804H23.4612H23.442H23.4228H23.4036H23.3844H23.3651H23.3459H23.3267H23.3074H23.2882H23.269H23.2497H23.2305H23.2112H23.192H23.1727H23.1534H23.1342H23.1149H23.0957H23.0764H23.0571H23.0379H23.0186H22.9994H22.9801H22.9609H22.9416H22.9224H22.9031H22.8839H22.8646H22.8454H22.8261H22.8069H22.7877H22.7685H22.7492H22.73H22.7108H22.6916H22.6724H22.6532H22.634H22.6148H22.5956H22.5765H22.5573H22.5381H22.519H22.4998H22.4807H22.4616H22.4425H22.4234H22.4043H22.3852H22.3661H22.347H22.328H22.3089H22.2899H22.2708H22.2518H22.2328H22.2138H22.1948H22.1759H22.1569H22.138H22.119H22.1001H22.0812H22.0623H22.0434H22.0246H22.0057H21.9869H21.9681H21.9493H21.9305H21.9117H21.893H21.8742H21.8555H21.8368H21.8181H21.7995H21.7808H21.7622H21.7436H21.725H21.7064H21.6878H21.6693H21.6508H21.6323H21.6138H21.5953H21.5769H21.5585H21.5401H21.5217H21.5034H21.485H21.4667H21.4484H21.4302H21.4119H21.3937H21.3755H21.3574H21.3392H21.3211H21.303H21.285H21.2669H21.2489H21.2309H21.2129H21.195H21.1771H21.1592H21.1413H21.1235H21.1057H21.0879H21.0702H21.0525H21.0348H21.0171H20.9995H20.9819H20.9643H20.9468H20.9293H20.9118H20.8943H20.8769H20.8595H20.8422H20.8249H20.8076H20.7903H20.7731H20.7559H20.7387H20.7216H20.7045H20.6875H20.6704H20.6534H20.6365H20.6196H20.6027H20.5858H20.569H20.5522H20.5355H20.5188H20.5021H20.4855H20.4689H20.4524H20.4359H20.4194H20.4029H20.3865H20.3702H20.3539H20.3376H20.3213H20.3051H20.289H20.2729H20.2568H20.2408H20.2248H20.2088H20.1929H20.177H20.1612H20.1454H20.1297H20.114H20.0983H20.0827H20.0672H20.0516H20.0362H20.0207H20.0053H19.99H19.9747H19.9595H19.9443H19.9291H19.914H19.8989H19.8839H19.869H19.854H19.8392H19.8244H19.8096H19.7949H19.7802H19.7656H19.751H19.7365H19.722H19.7076H19.6932H19.6789H19.6646H19.6504H19.6362H19.6221H19.608H19.594H19.5801H19.5662H19.5523H19.5385H19.5248H19.5111H19.4975H19.4839H19.4704H19.4569H19.4435H19.4301H19.4168H19.4036H19.3904H19.3773H19.3642H19.3512H19.3382C18.9944 8.0057 18.489 8.07715 18.0987 8.2616Z" fill="#2A363B"/>
<path d="M16.9064 29.8978C16.9064 28.534 14.9174 29.3295 13.923 29.8978L10.5134 27.7668V26.062L7.10377 24.3572H4.54657L1.13696 21.8L4.97277 17.1118L3.69416 10.2926L5.82517 9.01396L8.38237 5.17816L11.792 2.62096L16.9064 1.76855L17.3326 3.89956L14.7754 4.32576L12.6444 6.88296L13.923 8.16156L14.7754 11.5712L16.9064 11.145V18.8166L19.0374 17.538H24.1518C24.1518 18.6745 24.237 21.2033 24.578 22.2262C25.0042 23.5048 22.447 22.2262 21.5946 21.3738C20.9127 20.6919 19.8898 22.5103 19.4636 23.5048C19.6056 24.2151 19.7193 25.8915 19.0374 26.9144C18.185 28.193 19.4636 30.7502 19.0374 32.0288C18.6112 33.3074 16.9064 31.6026 16.9064 29.8978Z" fill="#2A363B"/>
</svg>
