<?xml version="1.0" encoding="UTF-8"?>
<svg xmlns="http://www.w3.org/2000/svg" version="1.1" viewBox="0 0 191.7 212.1">
  <defs>
    <style>
      .cls-1 {
        fill: #fff;
      }
    </style>
  </defs>
  <!-- Generator: Adobe Illustrator 28.7.5, SVG Export Plug-In . SVG Version: 1.2.0 Build 176)  -->
  <g>
    <g id="Capa_2">
      <g id="Capa_1-2">
        <g>
          <path class="cls-1" d="M119.7,70.8c-.3.6-.6,1.1-.9,1.7.3-.5.7-1,1-1.5,0,0,0,0-.1-.2h0Z"/>
          <path class="cls-1" d="M85.5,85.6c0,.1,0,11.1,0,11.1,0,0,13.3-2.5,25.9-15.1l-2.2-31.6c-1.9,11.6-7.5,27.2-23.8,35.6h0Z"/>
          <path class="cls-1" d="M88.5,159.1c0,.4.2,10.1.2,10.1,0,0,12.3-1.7,27.7-13.6l-1.4-20.1c-6.2,7.4-14.7,15.6-26.5,23.6h0Z"/>
          <path class="cls-1" d="M86.8,120.9c0,0,1.3,7.7,1,11.3,0,0,11.7.2,26.4-10l-1.7-24.9c-5.1,8.5-13.1,17.3-25.7,23.6Z"/>
          <path class="cls-1" d="M80.1,149.3v-10.2s-14.3-1.5-26.8-20.5l.4,20.3c7.7,6.5,16.8,11.4,26.4,10.3h0Z"/>
          <path class="cls-1" d="M79.4,112.7l.4-9.8s-16.3-2.9-27.3-22.3l.4,21.4c6.9,5.9,16.2,11.4,26.5,10.7Z"/>
          <path class="cls-1" d="M80.4,191v-13.8s-11.1,1.1-26.4-20.7l.5,23.3c8.4,6.5,17.5,11.2,25.9,11.2Z"/>
          <path class="cls-1" d="M59.5,204.8c-.7-.7-2.3-2.2-4.7-4.7v4.7h4.7Z"/>
          <path class="cls-1" d="M106.3,7.5h-55.2l1.1,57.9c5.9,5.9,14.9,12.1,25.7,12.1l1.2-7s-23.1-18.1-11.3-49.2c0,9.6,2.6,17.2,5.2,22.3,3.4,6.6,7.1,10.3,7.3,10.4.2.2.5.3.8.3s.6-.1.8-.3c.4-.5.4-1.2,0-1.6-.2-.1-12.4-12-11.8-32,1.6,4.7,4.9,14.2,4.9,14.2,0,0,2.4-11,1-25.8,0,0,20.2,13.8,13.3,49.3,0,0,8.3-1.7,19.1-19.7l-2.1-30.7Z"/>
          <path class="cls-1" d="M116.8,160.9c-5.3,5-12.2,9.1-20.1,11.8l-.5.2c-5.4,1.9-12.9,4.4-12.9,12s.5,1.1,1.1,1.1,1.1-.5,1.1-1.1c0-6,6-8,11.3-9.9l.5-.2c8.2-2.8,15.4-7.1,20.9-12.4,4.7-4.4,9-9.6,13-15.6v-4.2c-4.4,7-9.3,13.1-14.6,18.1h0Z"/>
          <path class="cls-1" d="M130.9,153c-3.5,6.2-7.3,12.2-11.6,17.8l2.3,34h9.7v-13.9l-3.7,2.4c-.2.1-.3.2-.5.2-.3,0-.6-.2-.8-.4-.3-.5-.2-1,.3-1.3l4.8-3.1v-19.2l-4.9,3.2c-.2.1-.3.2-.5.2-.3,0-.6-.2-.8-.4-.3-.5-.2-1,.3-1.3l6-3.9v-15c-.1.3-.2.5-.4.8h0Z"/>
          <g>
            <path class="cls-1" d="M17.1,202.9H5.2c-.2,0-.3.1-.3.3v1.4c0,.2.1.3.3.3h11.9c.2,0,.3-.1.3-.3v-1.3c0-.2-.2-.3-.3-.3Z"/>
            <path class="cls-1" d="M6.4,32.7h-1.2c-.2,0-.3.1-.3.3v7.2c0,.2.1.3.3.3h1.2c.2,0,.3-.1.3-.3v-2.7h10.4c.2,0,.3-.1.3-.3v-1.4c0-.2-.1-.3-.3-.3H6.7v-2.6c0-.2-.2-.3-.3-.3Z"/>
            <path class="cls-1" d="M6.2,14.7c1,.6,2.6.9,4.9.9s3.9-.3,4.9-.9c1.1-.6,1.6-1.7,1.6-3.1s-.5-2.5-1.5-3.2c-1-.6-2.6-.9-4.9-.9s-3.9.3-4.9.9c-1,.6-1.6,1.7-1.6,3.1,0,1.4.5,2.5,1.6,3.1ZM11.1,13.7c-1.9,0-3.2-.2-3.8-.5s-.9-.9-.9-1.6.3-1.3.9-1.6c.6-.3,2-.5,3.9-.5s3.4.3,3.9.5c.6.3.9.8.9,1.6s-.3,1.3-.9,1.6c-.5.2-1.5.5-3.9.5Z"/>
            <path class="cls-1" d="M17.1,177.1H5.2c-.2,0-.3.1-.3.3v1.3c0,0,0,.2,0,.2s.1,0,.2,0h8.7c0-.1-8.8,3.4-8.8,3.4-.1,0-.2.2-.2.3v1.8c0,.2.1.3.3.3h11.9c.2,0,.3-.1.3-.3v-1.3c0,0,0-.2,0-.2,0,0-.1-.1-.2,0h-9c0,.1,9.1-3.5,9.1-3.5.1,0,.2-.2.2-.3v-1.7c0-.2-.2-.3-.3-.3h0Z"/>
            <path class="cls-1" d="M4.9,134.5c0,.2.1.3.3.3h1.2c.2,0,.3-.1.3-.3v-2.7h10.4c.2,0,.3-.1.3-.3v-1.4c0-.2-.1-.3-.3-.3H6.7v-2.6c0-.2-.1-.3-.3-.3h-1.2c-.2,0-.3.1-.3.3v7.2h0Z"/>
            <path class="cls-1" d="M16.4,58.7c-.3-.3-.7-.5-1.2-.6-.4-.1-1.1-.2-2.2-.2h-7.8c-.2,0-.3.1-.3.3v1.3c0,.2.1.3.3.3h8c1,0,1.7.2,2.1.5.5.3.6,1,.6,1.5,0,.7-.2,1.1-.5,1.4-.4.3-1.1.4-2.2.4H5.2c-.2,0-.3.1-.3.3v1.3c0,0,0,.2,0,.2s.1,0,.2,0h7.8c1.1,0,1.8,0,2.2-.2s.8-.2,1.1-.5c.4-.3.8-.7,1-1.3.2-.6.3-1.1.3-1.7s-.1-1.2-.3-1.7c-.2-.5-.5-.9-.9-1.3h0Z"/>
            <path class="cls-1" d="M13.8,151.8c-.6,0-1.1,0-1.5.2-.4.1-.8.4-1.1.7-.2.2-.5.6-1.1,2.3,0,.2-.1.3-.2.4-.3.9-.6,1.3-.8,1.4-.3.2-.6.3-1.1.3s-.9-.2-1.2-.4c-.3-.3-.5-.8-.5-1.3s.2-.9.5-1.2c.3-.3.8-.4,1.4-.4h.2c.2,0,.3-.1.3-.3v-1.2c0-.2-.1-.3-.3-.3h-.3c-1,0-1.8.3-2.4.9-.6.6-.9,1.4-.9,2.5s.3,2,.9,2.6c.6.6,1.5.9,2.6.9s1.1,0,1.5-.3c.5-.2.8-.5,1.1-.8.2-.2.4-.5.9-1.9,0-.3.2-.5.3-.6h0c.3-1.1.6-1.4.8-1.5.3-.2.6-.3,1.1-.3s1.1.2,1.4.5c.3.3.5.8.5,1.3s-.2,1.1-.5,1.4-.9.5-1.7.5h-.4c-.2,0-.3.1-.3.3v1.3c0,.2.1.3.3.3h.3c1.2,0,2.2-.3,2.9-.9.7-.6,1.1-1.5,1.1-2.7s-.3-2.1-1-2.8c-.8-.7-1.7-1-2.9-1h0Z"/>
            <path class="cls-1" d="M4.9,109.4c0,.2.1.3.3.3h11.9c.2,0,.3-.1.3-.3v-1.4c0-.2-.1-.3-.3-.3H5.2c-.2,0-.3.1-.3.3v1.4Z"/>
            <path class="cls-1" d="M6.4,82.6h-1.2c-.2,0-.3.1-.3.3v7.2c0,.2.1.3.3.3h1.2c.2,0,.3-.1.3-.3v-2.7h10.4c.2,0,.3-.1.3-.3v-1.4c0-.2-.1-.3-.3-.3H6.7v-2.6c0-.2-.2-.3-.3-.3Z"/>
          </g>
          <path class="cls-1" d="M167.2,21.4h-19.7v6.6h-7.1V7.5h7.1v6.5h19.7v7.4ZM167.2,51.3h-26.7v-8.9c0-2.3.1-4,.3-5.1s.6-2.1,1.2-2.9c1.1-1.6,2.6-2.8,4.6-3.6s4.4-1.2,7.3-1.2,5.6.5,7.6,1.5c2.1,1,3.6,2.5,4.6,4.4.4.8.7,1.7.9,2.8.2,1.1.3,2.9.3,5.4v7.5h0ZM160.4,43.9v-2c0-1.9-.5-3.1-1.4-3.9s-2.7-1.1-5.1-1.1-4.1.4-5.1,1.1-1.5,2-1.5,3.7v2.1h13.2ZM167.2,71.8h-26.7v-7.4h19.6v-10h7.1v17.5ZM153.8,99.1c-4.3,0-7.8-1.1-10.3-3.2-2.5-2.2-3.8-5.1-3.8-8.7s1.2-6.6,3.8-8.7c2.5-2.1,6-3.2,10.3-3.2s7.8,1.1,10.3,3.2,3.8,5.1,3.8,8.7-1.3,6.6-3.8,8.7c-2.5,2.2-6,3.2-10.3,3.2M153.8,91.6c2.5,0,4.4-.4,5.6-1.1,1.2-.7,1.8-1.9,1.8-3.4s-.6-2.7-1.8-3.4c-1.2-.7-3-1.1-5.6-1.1s-4.4.3-5.6,1.1c-1.2.7-1.8,1.9-1.8,3.4s.6,2.7,1.8,3.4,3.1,1.1,5.6,1.1M167.2,122.4h-26.7v-9.4c0-2,0-3.5.2-4.5s.3-1.7.6-2.4c.5-1.2,1.3-2.1,2.4-2.7s2.4-.9,3.9-.9,2.3.2,3.2.7c.9.5,1.7,1.2,2.2,2.1.5-1.2,1.3-2.1,2.3-2.7,1-.6,2.3-.9,4-.9s3,.3,4.2.9c1.2.6,2.1,1.4,2.7,2.5.5.7.8,1.5.9,2.5.2.9.3,2.5.3,4.6v10.2h0ZM151.1,115.2v-3.1c0-1-.2-1.7-.5-2.2s-.9-.6-1.8-.6-1.5.2-1.8.7c-.3.5-.5,1.5-.5,3.1v2h4.6,0ZM160.9,115.2v-3.4c0-1.1-.2-1.9-.6-2.4s-1-.7-1.9-.7-1.5.2-1.9.7-.6,1.3-.6,2.5v3.4h4.9ZM167.2,146v6.7h-26.7v-9l13.3-3.2c.2,0,.6-.1,1.2-.3.6-.1,1.5-.3,2.7-.5-.9-.2-1.7-.3-2.3-.4-.7-.1-1.2-.2-1.5-.3l-13.4-3.3v-9h26.7v6.8h-13.2c0,0-2.3,0-2.3,0-.8,0-1.5,0-2.3,0,1.4.3,2.9.6,4.5.9h.2s13.1,2.9,13.1,2.9v5.2l-12.8,2.9c-.6.2-1.2.3-2,.4-.8.1-1.8.3-3.1.5,1.1,0,2.2,0,2.9,0s1.5,0,2,0h13ZM140.4,178.8v-7.4h16.5c1.5,0,2.6-.3,3.2-.8.6-.5,1-1.5,1-2.8s-.3-2.2-.9-2.7-1.7-.8-3.3-.8h-16.5v-7.4h17.2c3.4,0,5.9.9,7.7,2.8,1.8,1.9,2.6,4.6,2.6,8.1s-.9,6.3-2.7,8.1c-1.8,1.9-4.3,2.8-7.7,2.8h-17.1s0,0,0,0ZM167.2,204.8h-26.7v-7.4h9.1v-6.9h-9.1v-7.4h26.7v7.4h-10.4v6.9h10.4v7.4Z"/>
          <g>
            <path class="cls-1" d="M185.1,142c-.2,0-.3.1-.3.3v4.6h-10.4c-.2,0-.3.1-.3.3v1.4c0,.2.1.3.3.3h11.9c.2,0,.3-.1.3-.3v-6.2c0-.2-.1-.3-.3-.3h-1.2Z"/>
            <path class="cls-1" d="M185.6,198c-.9-.7-2.1-1-3.7-1s-.3.1-.3.3v1.4c0,.2.1.3.3.3h.2c1,0,1.7.2,2.2.5.5.3.7.7.7,1.3s-.3,1.3-1,1.6c-.7.3-2,.5-3.7.5s-3-.2-3.8-.5c-.7-.3-1-.8-1-1.5s.2-1,.6-1.4c.5-.3,1-.5,1.7-.5s.3-.1.3-.3v-1.3c0-.2-.1-.3-.3-.3h-.2c-1.2,0-2.2.3-2.9,1-.7.7-1,1.6-1,2.8s.5,2.5,1.6,3.1c1,.6,2.7.9,4.9.9s3.7-.3,4.8-.9c1.1-.6,1.7-1.7,1.7-3,0-1.3-.5-2.3-1.3-3Z"/>
            <path class="cls-1" d="M174.4,12.9l11.9,3.3h0c0,0,.1,0,.2,0s.1-.2.1-.2v-1.3c0-.1,0-.2-.2-.3l-3.2-.8v-3.4l3.2-.9c.1,0,.2-.2.2-.3v-1.4c0,0,0-.2-.1-.2s-.2,0-.3,0l-11.9,3.4c-.1,0-.2.2-.2.3v1.7c0,0,0,.2.2.2h0ZM181.4,10.5v2.5l-4.8-1.2s4.8-1.2,4.8-1.2Z"/>
            <path class="cls-1" d="M174.5,37.5h11.9c.2,0,.3-.1.3-.3v-1.4c0-.2-.1-.3-.3-.3h-11.9c-.2,0-.3.1-.3.3v1.4c0,.2.2.3.3.3Z"/>
            <path class="cls-1" d="M175.4,122.7c1,.7,2.6,1,4.9,1s3.9-.3,4.9-.9c1.1-.6,1.6-1.7,1.6-3.2s-.5-2.6-1.5-3.2c-1-.7-2.6-1-4.9-1s-3.9.3-4.9,1c-1,.6-1.6,1.7-1.6,3.2s.5,2.6,1.6,3.2h0ZM180.4,121.7c-2,0-3.2-.2-3.9-.5-.6-.3-.9-.9-.9-1.7s.3-1.3.9-1.7c.5-.2,1.5-.5,3.9-.5s3.4.3,3.9.5c.6.3.9.8.9,1.7s-.3,1.3-.9,1.7c-.5.2-1.5.5-3.9.5Z"/>
            <path class="cls-1" d="M175.4,176.1c1,.7,2.6,1,4.9,1s3.9-.3,4.9-1c1.1-.6,1.6-1.7,1.6-3.2s-.5-2.6-1.5-3.2c-1-.7-2.6-1-4.9-1s-3.9.3-4.9,1c-1.1.7-1.5,1.7-1.5,3.2,0,1.5.5,2.6,1.5,3.2h0ZM180.4,175.1c-2.3,0-3.4-.3-3.9-.5-.6-.3-.9-.9-.9-1.7s.3-1.4.9-1.7c.5-.2,1.5-.5,3.9-.5s3.4.3,3.9.5c.6.3.9.8.9,1.7s-.3,1.3-.9,1.7c-.5.2-1.5.5-3.9.5Z"/>
            <path class="cls-1" d="M174.4,95.4h11.9c.2,0,.3-.1.3-.3v-1.3c0-.2-.1-.3-.3-.3h-9l9-2.3c.1,0,.2-.2.2-.3v-1.3c0-.1,0-.2-.2-.3l-9.1-2.4h9.1c0,0,.2,0,.2,0s0-.1,0-.2v-1.3c0-.2-.2-.3-.3-.3h-11.9c-.2,0-.3.1-.3.3v2.3c0,.1,0,.2.2.3l9.1,2.4-9.1,2.3c-.1,0-.2.2-.2.3v2.3c0,.1.2.2.3.2h0Z"/>
            <path class="cls-1" d="M174.5,64.8h11.9c.2,0,.3-.1.3-.3v-3.3c0-1.2-.3-2.2-1-2.8-.6-.7-1.5-1-2.7-1s-1.6.2-2.2.5c-.3.2-.6.6-.8,1-.2-.3-.4-.5-.7-.7-.5-.3-1.1-.5-1.9-.5s-2,.3-2.5.9c-.5.6-.8,1.4-.8,2.7v3.2c0,.2,0,.3.2.3h0ZM175.8,62.9v-1.1c0-.8.2-1.4.4-1.7.3-.3.7-.4,1.3-.4s1.1.1,1.4.4c.3.3.4.8.4,1.6v1.1h-3.4ZM180.9,63v-1.2c0-.9.2-1.5.5-1.8.3-.3.9-.5,1.7-.5s1.2.2,1.5.5c.3.3.5.8.5,1.5v1.5h-4Z"/>
          </g>
          <path class="cls-1" d="M117.6,173.1c-5.5,6.9-11.7,13.3-18.9,18.5-1.5,1.1-3.1,2.1-4.7,3.1-2.3,1.4-4,1.8-4.5,4.8,0,.1,0,.3,0,.6-2.8-3.6-7.5-5.3-11.7-6.5-1.5-.5-3-.8-4.5-1.2-1.6-.4-3.3-.8-4.9-1.3-10.8-3.3-20.2-12.4-28.1-20.6-5.7-5.9-11.4-12.6-17.1-20.4v3.7c5.2,6.8,10.3,12.8,15.5,18.2,8.1,8.4,17.8,17.7,29.1,21.2,1.7.5,3.4.9,5.1,1.4,1.4.4,2.9.7,4.4,1.2,4.9,1.4,10.7,3.7,12.2,9.1h0c0,0,30.4,0,30.4,0l-2.1-31.7Z"/>
          <path class="cls-1" d="M51.7,196.8c-4.6-5.2-10.8-12.8-17.7-23l-10.9-6.2v-2.2l8.5,4.9c-2.8-4.2-5.7-8.9-8.6-14v48.6h28.8l-.2-8h0ZM42.7,198.2c-.2.3-.5.5-.8.5s-.3,0-.5-.1l-18.3-10.4v-2.2l19.2,10.9c.5.3.6.8.4,1.3h0Z"/>
          <path class="cls-1" d="M117.7,31.6l13.6-8.9V7.5h-3.4l-10.3,6.7c-.2.1-.3.2-.5.2-.3,0-.6-.2-.8-.4-.3-.5-.2-1,.3-1.3l7.9-5.1h-16.3l1.9,27.8c-1.6,4.8-3.6,9.2-5.9,13.1-2.8,4.7-7.1,9.1-12.2,12.8l-.5.3c-3.6,2.6-8.5,6-6.9,11.6.2.5.6.8,1.1.8s.2,0,.3,0c.6-.2.9-.8.8-1.4-1.1-3.7,1.9-6.2,6-9.1l.5-.4c5.4-3.9,9.9-8.5,12.8-13.5,1.6-2.7,3.1-5.6,4.3-8.8l2.6,38.8c2-2.1,3.9-4.5,5.7-7.1.3-.6.6-1.1.9-1.7h0c-.3-.5-.2-1.1.3-1.4l.6-.4,3-2,7.8-5.1v-17.5l-11.4,7.5c-.2.1-.3.2-.5.2-.3,0-.6-.2-.8-.4-.3-.5-.2-1,.3-1.3l12.5-8.1v-17.4l-12.5,8.2c-.2.1-.3.2-.5.2-.3,0-.6-.2-.8-.4-.3-.5-.2-1,.3-1.3h0Z"/>
          <path class="cls-1" d="M121,88.5l10.3-6.7v-17.4l-8.7,5.7-1.7,1.1h0c-.2.1-.3.2-.5.2-.2,0-.5,0-.6-.3-.3.5-.7,1-1,1.5-2.6,4.8-5.6,9.1-8.9,12.9-4,4.6-9.4,8.5-15.6,11.3l-.5.2c-4.3,2-10.3,4.7-9.7,11.1,0,.6.5,1,1.1,1h.1c.6,0,1.1-.6,1-1.2-.5-4.8,4.3-7,8.4-8.8l.5-.2c6.5-3,12.1-7.1,16.3-11.9,3.4-3.9,6.4-8.3,9.1-13.1-.6,4.6-2.3,12.3-6.6,20.5l1.8,26.7c2.6-2,5.4-4.3,8.2-7-2.2,2.8-4.6,5.4-7,7.7-5.2,5-12,9.1-19.7,11.8l-.5.2c-5.3,1.9-12.6,4.4-12.6,12s.5,1.1,1.1,1.1,1.1-.5,1.1-1.1c0-5.9,5.9-8,11.1-9.8l.5-.2c8-2.8,15.1-7.1,20.5-12.4,4-3.8,7.7-8.2,11.1-13.1-1.4,4.5-5,13.1-13,23.3l1.4,20.7c4.2-3.5,8.7-7.7,13.1-13v-15.8l-6.2,4c-.2.1-.3.2-.5.2-.3,0-.6-.2-.8-.4-.3-.5-.2-1,.3-1.3l7.2-4.7v-19.5c0,.1-.1.2-.2.3l-7.9,5.2c-.2.1-.3.2-.5.2-.3,0-.6-.2-.8-.4-.3-.5-.2-1,.3-1.3l9.2-6v-17.4l-9.3,6c-.2.1-.3.2-.5.2-.3,0-.6-.2-.8-.4-.3-.4-.2-.9.3-1.2h0Z"/>
          <path class="cls-1" d="M83.4,125.2c-1.1-4.1-3.7-7.3-7.6-9.1-2.3-1.1-4.8-1.7-7.2-2.3-2.5-.6-4.9-1.2-7.2-2.3-4.6-2.2-8.4-5.2-11.1-8.7-2.3-3-4.3-6.2-6-9.6,1.5,1.7,3.4,3.8,5.6,6l-.5-25c-1.7-4.1-3.2-8.7-4.3-14,2,4.4,4.4,8.7,7.6,12.5,2.5,2.9,5.9,5.5,10,7.4,2.1.9,4.3,1.5,6.4,2,2,.5,3.9.9,5.7,1.7,2.6,1.1,4.5,3.2,5.2,5.8.2.5.6.8,1.1.8s.2,0,.3,0c.6-.2.9-.8.8-1.4-.9-3.3-3.2-5.9-6.5-7.3-2-.8-4.1-1.4-6.1-1.8-2.1-.5-4.1-1-6-1.8-3.8-1.7-7-4.1-9.2-6.8-2.8-3.4-4.9-7.1-6.8-11.1.5.6,1,1.2,1.6,1.9l-1.1-54.6h-25v60.3l17.3,9.9c.5.3.6.8.3,1.3-.2.3-.5.5-.8.5s-.3,0-.5-.1l-16.4-9.3v76.9c4.5,6,15.5,19.8,28.3,30.4l-.5-25.5c-2.8-4.3-5.6-9.4-8.5-15.3l-19.2-10.9v-2.2l17.8,10.1c-.4-.8-.8-1.5-1.1-2.3,8.4,13.9,18.4,21.9,29.7,24,4.3.8,7.3,1.8,9.1,4.9,1.1,1.9,1.6,4.3,1.4,6.5,0,.6.4,1.2,1,1.2h.1c.6,0,1.1-.5,1.1-1,.3-2.7-.3-5.5-1.7-7.8-2.5-4.3-6.8-5.4-10.7-6.1-13.6-2.4-25.1-14.2-34.5-35.1,3.3,4.9,8.6,12.1,15.1,18.4l-.4-22.8c-2.9-5.2-5.6-11.5-7.8-19.1,1.8,3.4,3.8,6.7,6.1,9.8,2.9,3.7,7,7,11.9,9.3,2.5,1.2,5.1,1.9,7.7,2.5,2.4.6,4.7,1.2,6.8,2.2,3.2,1.5,5.5,4.2,6.3,7.6.1.5.6.9,1.1.9s.2,0,.3,0c.7-.2,1-.8.9-1.4h0ZM40.4,153.2c.5.3.6.8.3,1.3-.2.3-.5.5-.8.5s-.3,0-.5-.1l-16.4-9.3v-2.2l17.3,9.8h0ZM23.1,30l17.3,9.9c.5.3.6.8.3,1.3-.2.3-.5.5-.8.5s-.3,0-.5-.1l-16.4-9.3v-2.2h0ZM40.8,116.7c-.2.3-.5.5-.8.5s-.3,0-.5-.1l-7.1-4-.3-.2h-.2c0,0,0-.1,0-.1h0s-8.7-5-8.7-5v-2.2l17.3,9.8c.5.3.6.8.4,1.3h0ZM40.8,97.8c-.2.3-.5.5-.8.5s-.3,0-.5-.1l-16.4-9.3v-2.2l17.3,9.8c.5.3.6.8.4,1.3ZM40.8,60c-.2.3-.5.5-.8.5s-.3,0-.5-.1l-16.4-9.3v-2.2l17.3,9.8c.5.3.6.8.4,1.3h0ZM40.8,22.2c-.2.3-.5.5-.8.5s-.3,0-.5-.1l-16.4-9.3v-2.2l17.3,9.8c.5.3.6.8.4,1.3Z"/>
        </g>
      </g>
    </g>
  </g>
</svg>