<svg width="192" height="141" viewBox="0 0 192 141" fill="none" xmlns="http://www.w3.org/2000/svg">
<g clip-path="url(#clip0_2746_6608)">
<path d="M167.57 0H24.21C10.86 0 0 10.86 0 24.21V116.11C0 129.46 10.86 140.32 24.21 140.32H167.57C180.92 140.32 191.78 129.46 191.78 116.11V24.21C191.78 10.86 180.92 0 167.57 0ZM186.36 24.21V55.66L149.28 20.73L125.47 42.92L97.79 15.24V5.42H167.57C177.93 5.42 186.36 13.85 186.36 24.21ZM5.42 116.1V24.21C5.42 14.16 13.36 5.95 23.3 5.47V57.26C20.58 57.77 18.53 60.15 18.53 63.01C18.53 65.87 20.59 68.25 23.3 68.76V74.05C20.58 74.56 18.53 76.93 18.53 79.8C18.53 82.67 20.59 85.04 23.3 85.55V90.85C20.58 91.36 18.53 93.73 18.53 96.6C18.53 99.47 20.59 101.84 23.3 102.35V107.64C20.58 108.15 18.53 110.52 18.53 113.39C18.53 116.26 20.59 118.63 23.3 119.14V134.85C13.37 134.37 5.42 126.16 5.42 116.11M25.46 134.89V119.14C28.18 118.63 30.23 116.26 30.23 113.39C30.23 110.52 28.17 108.15 25.46 107.64V102.35C28.18 101.84 30.23 99.46 30.23 96.6C30.23 93.74 28.17 91.36 25.46 90.85V85.55C28.18 85.04 30.23 82.67 30.23 79.8C30.23 76.93 28.17 74.56 25.46 74.05V68.76C28.18 68.25 30.23 65.87 30.23 63.01C30.23 60.15 28.17 57.77 25.46 57.26V5.42H47.4V25.84C44.68 26.35 42.62 28.73 42.62 31.59C42.62 34.45 44.68 36.83 47.4 37.34V41.39C44.68 41.9 42.62 44.27 42.62 47.14C42.62 50.01 44.68 52.38 47.4 52.89V90.86C44.68 91.37 42.62 93.74 42.62 96.61C42.62 99.48 44.68 101.85 47.4 102.36V107.65C44.68 108.16 42.62 110.53 42.62 113.4C42.62 116.27 44.68 118.64 47.4 119.15V134.9H25.46V134.89ZM49.57 134.89V119.14C52.29 118.63 54.34 116.26 54.34 113.39C54.34 110.52 52.28 108.15 49.57 107.64V102.35C52.29 101.84 54.34 99.46 54.34 96.6C54.34 93.74 52.28 91.36 49.57 90.85V52.88C52.29 52.37 54.34 49.99 54.34 47.13C54.34 44.27 52.28 41.89 49.57 41.38V37.33C52.29 36.82 54.34 34.45 54.34 31.58C54.34 28.71 52.28 26.34 49.57 25.83V5.42H71.51V74.06C68.79 74.57 66.73 76.94 66.73 79.81C66.73 82.68 68.79 85.05 71.51 85.56V90.86C68.79 91.37 66.73 93.74 66.73 96.61C66.73 99.48 68.79 101.85 71.51 102.36V134.91H49.57V134.89ZM73.68 134.89V102.34C76.4 101.83 78.45 99.45 78.45 96.59C78.45 93.73 76.39 91.35 73.68 90.84V85.54C76.4 85.03 78.45 82.66 78.45 79.79C78.45 76.92 76.39 74.55 73.68 74.04V5.42H95.62V75L87.71 81.78C86.8 82.56 86.7 83.93 87.48 84.84C88.26 85.75 89.63 85.85 90.53 85.08L95.62 80.72V85.31L87.71 92.09C86.8 92.87 86.7 94.24 87.48 95.15C88.26 96.06 89.63 96.16 90.53 95.39L95.62 91.03V95.62L87.71 102.4C86.8 103.18 86.7 104.55 87.48 105.46C88.26 106.37 89.63 106.47 90.53 105.7L95.62 101.34V105.93L87.71 112.71C86.8 113.49 86.7 114.86 87.48 115.76C88.26 116.67 89.63 116.77 90.53 116L95.62 111.64V134.94H73.68V134.89ZM170.11 134.7V111.59L175.2 115.95C175.61 116.3 176.11 116.47 176.61 116.47C177.22 116.47 177.83 116.21 178.26 115.71C179.04 114.8 178.93 113.43 178.02 112.66L170.11 105.88V101.29L175.2 105.65C175.61 106 176.11 106.17 176.61 106.17C177.22 106.17 177.83 105.91 178.26 105.41C179.04 104.5 178.93 103.13 178.02 102.35L170.11 95.57V90.98L175.2 95.34C175.61 95.69 176.11 95.86 176.61 95.86C177.22 95.86 177.83 95.6 178.26 95.1C179.04 94.19 178.93 92.82 178.02 92.04L170.11 85.26V80.67L175.2 85.03C175.61 85.38 176.11 85.55 176.61 85.55C177.22 85.55 177.83 85.29 178.26 84.79C179.04 83.88 178.93 82.51 178.02 81.73L169.03 74.02L160.04 81.73C159.13 82.51 159.03 83.88 159.81 84.79C160.59 85.7 161.96 85.8 162.87 85.03L167.96 80.67V85.26L160.05 92.04C159.14 92.82 159.04 94.19 159.82 95.1C160.6 96.01 161.97 96.11 162.88 95.34L167.97 90.98V95.57L160.06 102.35C159.15 103.13 159.05 104.5 159.83 105.41C160.61 106.32 161.98 106.42 162.89 105.65L167.98 101.29V105.88L160.07 112.66C159.16 113.44 159.06 114.81 159.84 115.71C160.62 116.62 161.99 116.72 162.9 115.95L167.99 111.59V134.88C167.87 134.88 167.74 134.9 167.62 134.9H146.05V111.6L151.14 115.96C151.55 116.31 152.05 116.48 152.55 116.48C153.16 116.48 153.77 116.22 154.2 115.72C154.98 114.81 154.87 113.44 153.97 112.67L146.06 105.89V101.3L151.15 105.66C151.56 106.01 152.06 106.18 152.56 106.18C153.17 106.18 153.78 105.92 154.21 105.42C154.99 104.51 154.88 103.14 153.98 102.36L146.07 95.58V90.99L151.16 95.35C151.57 95.7 152.07 95.87 152.57 95.87C153.18 95.87 153.79 95.61 154.22 95.11C155 94.2 154.89 92.83 153.99 92.05L146.08 85.27V80.68L151.17 85.04C151.58 85.39 152.08 85.56 152.58 85.56C153.19 85.56 153.8 85.3 154.23 84.8C155.01 83.89 154.9 82.52 154 81.74L146.09 74.96V70.92L151.18 75.28C151.59 75.63 152.09 75.8 152.59 75.8C153.2 75.8 153.81 75.54 154.24 75.04C155.02 74.13 154.91 72.76 154.01 71.98L146.1 65.2V61.16L151.19 65.52C151.6 65.87 152.1 66.04 152.6 66.04C153.21 66.04 153.82 65.78 154.25 65.28C155.03 64.37 154.92 63 154.02 62.22L145.03 54.51L136.04 62.22C135.13 63 135.03 64.37 135.81 65.28C136.59 66.19 137.96 66.29 138.87 65.52L143.96 61.16V65.2L136.05 71.98C135.14 72.76 135.04 74.13 135.82 75.04C136.6 75.95 137.97 76.05 138.88 75.28L143.97 70.92V74.96L136.06 81.74C135.15 82.52 135.05 83.89 135.83 84.8C136.61 85.71 137.98 85.81 138.89 85.04L143.98 80.68V85.27L136.07 92.05C135.16 92.83 135.06 94.2 135.84 95.11C136.62 96.02 137.99 96.12 138.9 95.35L143.99 90.99V95.58L136.08 102.36C135.17 103.14 135.07 104.51 135.85 105.42C136.63 106.33 138 106.43 138.91 105.66L144 101.3V105.89L136.09 112.67C135.18 113.45 135.08 114.82 135.86 115.72C136.64 116.62 138.01 116.73 138.92 115.96L144.01 111.6V134.9H122.07V111.6L127.16 115.96C127.57 116.31 128.07 116.48 128.57 116.48C129.18 116.48 129.79 116.22 130.22 115.72C131 114.81 130.89 113.44 129.99 112.67L122.08 105.89V101.3L127.17 105.66C127.58 106.01 128.08 106.18 128.58 106.18C129.19 106.18 129.8 105.92 130.23 105.42C131.01 104.51 130.9 103.14 130 102.36L122.09 95.58V90.99L127.18 95.35C127.59 95.7 128.09 95.87 128.59 95.87C129.2 95.87 129.81 95.61 130.24 95.11C131.02 94.2 130.91 92.83 130.01 92.05L122.1 85.27V80.68L127.19 85.04C127.6 85.39 128.1 85.56 128.6 85.56C129.21 85.56 129.82 85.3 130.25 84.8C131.03 83.89 130.92 82.52 130.02 81.74L121.03 74.03L112.04 81.74C111.13 82.52 111.03 83.89 111.81 84.8C112.59 85.71 113.96 85.81 114.87 85.04L119.96 80.68V85.27L112.05 92.05C111.14 92.83 111.04 94.2 111.82 95.11C112.6 96.02 113.97 96.12 114.88 95.35L119.97 90.99V95.58L112.06 102.36C111.15 103.14 111.05 104.51 111.83 105.42C112.61 106.33 113.98 106.43 114.89 105.66L119.98 101.3V105.89L112.07 112.67C111.16 113.45 111.06 114.82 111.84 115.72C112.62 116.63 113.99 116.73 114.9 115.96L119.99 111.6V134.9H98.05V111.6L103.14 115.96C103.55 116.31 104.05 116.48 104.55 116.48C105.16 116.48 105.77 116.22 106.2 115.72C106.98 114.81 106.87 113.44 105.97 112.67L98.06 105.89V101.3L103.15 105.66C103.56 106.01 104.06 106.18 104.56 106.18C105.17 106.18 105.78 105.92 106.21 105.42C106.99 104.51 106.88 103.14 105.98 102.36L98.07 95.58V90.99L103.16 95.35C103.57 95.7 104.07 95.87 104.57 95.87C105.18 95.87 105.79 95.61 106.22 95.11C107 94.2 106.89 92.83 105.99 92.05L98.08 85.27V80.68L103.17 85.04C103.58 85.39 104.08 85.56 104.58 85.56C105.19 85.56 105.8 85.3 106.23 84.8C107.01 83.89 106.9 82.52 106 81.74L98.09 74.96V18.3L125.72 45.93L149.58 23.7L186.22 58.22L186.66 57.75V116.11C186.66 125.61 179.57 133.46 170.41 134.71" fill="white"/>
</g>
<defs>
<clipPath id="clip0_2746_6608">
<rect width="191.77" height="140.31" fill="white"/>
</clipPath>
</defs>
</svg>
